<?xml version="1.0" encoding="UTF-8" standalone="no"?>
<svg xmlns:dc="http://purl.org/dc/elements/1.1/" xmlns:cc="http://creativecommons.org/ns#" xmlns:rdf="http://www.w3.org/1999/02/22-rdf-syntax-ns#" xmlns:svg="http://www.w3.org/2000/svg" xmlns="http://www.w3.org/2000/svg" version="1.1" id="svg4253" height="72" width="200">
<defs id="defs4292" />
<metadata id="metadata7">image/svg+xml<rdf:RDF>
<cc:Work rdf:about="">
<dc:format>image/svg+xml</dc:format>
<dc:type rdf:resource="http://purl.org/dc/dcmitype/StillImage" />
<dc:title></dc:title>
</cc:Work>
</rdf:RDF>
</metadata>
<path d="M 108.30347,25.625167 108.30347,25.625167 108.30347,25.623952 108.30347,25.623234 108.30347,25.623952 108.30347,25.624683 108.30347,25.625167 108.30347,25.625167 102.65374,25.625167 C 102.65158,16.775437 109.74109,9.600959 118.48642,9.599522 127.23342,9.599522 134.32678,16.77592 134.32678,25.625167 L 128.66961,25.625167 128.66961,25.625167 C 128.66961,19.936318 124.10951,15.322928 118.48642,15.322928 112.86621,15.322928 108.30827,19.931512 108.30347,25.616286 L 108.30347,25.616521 108.30347,25.616756 108.30347,25.616521 108.30347,25.616286 108.30347,25.616521 108.30347,25.616756 108.30347,25.617004 108.30347,25.616756 108.30347,25.617004 108.30347,25.617239 108.30347,46.243304 108.30347,46.375069 C 108.30347,52.063682 112.86358,56.677059 118.48642,56.677059 124.10927,56.677059 128.66961,52.063682 128.66961,46.375069 L 128.66961,46.374834 134.32678,46.374834 C 134.32678,55.224067 127.23318,62.400478 118.48642,62.400478 109.73967,62.400478 102.64606,55.09255 102.64606,46.243304 L 102.65374,25.625167 108.30347,25.625167 Z" class="fil3" id="c" style="clip-rule:evenodd;fill:none;fill-rule:evenodd;stroke:black;stroke-width:0.13060249;stroke-linecap:round;stroke-linejoin:round;stroke-miterlimit:4;stroke-dasharray:none;stroke-opacity:1">
<desc id="desc4261">La Aspirina</desc>
<title id="title4263">C</title>
</path>
<path d="M 110.71625,44.975114 110.71625,27.012387 117.30871,27.012387 C 119.80621,27.012387 121.43657,27.104318 122.19475,27.284315 123.36069,27.551919 124.34159,28.137541 125.12834,29.040918 125.91506,29.94406 126.30844,31.110954 126.30844,32.537081 126.30844,33.641339 126.08091,34.569674 125.6261,35.318262 125.17106,36.071159 124.59767,36.660855 123.89614,37.091661 123.1994,37.518156 122.48876,37.802556 121.76826,37.940564 120.78736,38.112162 119.36556,38.200006 117.50288,38.200006 L 114.82513,38.200006 114.82513,44.975114 110.71625,44.975114 Z M 114.82513,30.052787 114.82513,35.146898 117.07159,35.146898 C 118.69259,35.146898 119.77789,35.054732 120.3227,34.866808 120.86776,34.678414 121.29424,34.385838 121.60722,33.984066 121.91514,33.582776 122.07163,33.118615 122.07163,32.587481 122.07163,31.934899 121.85345,31.395368 121.41761,30.968885 120.98632,30.546477 120.4319,30.27886 119.76829,30.174221 119.27531,30.090466 118.28961,30.052787 116.81094,30.052787 L 114.82513,30.052787 Z M 128.66985,27.012387 134.32389,27.012387 134.32389,30.40847 128.66985,30.40847 128.66985,27.012387 Z M 128.66985,31.964181 134.32389,31.964181 134.32389,44.975114 128.66985,44.975114 128.66985,31.964181 Z M 150.29099,38.371369 154.27171,39.483789 C 153.66041,41.44536 152.64639,42.900755 151.2246,43.854297 149.80736,44.803516 148.00181,45.280411 145.81704,45.280411 143.11554,45.280411 140.89284,44.464864 139.15353,42.838105 137.41397,41.206788 136.54226,38.977861 136.54226,36.154914 136.54226,33.164457 137.41876,30.84335 139.16792,29.187075 140.91636,27.535124 143.21489,26.707104 146.06784,26.707104 148.55622,26.707104 150.57994,27.355362 152.13447,28.655941 153.06328,29.421324 153.75522,30.525594 154.21963,31.964181 L 150.14865,32.821717 C 149.91153,31.888823 149.40944,31.152969 148.64142,30.613437 147.87869,30.073657 146.94939,29.806053 145.85976,29.806053 144.35228,29.806053 143.12489,30.282948 142.18671,31.240564 141.24829,32.194341 140.77884,33.741667 140.77884,35.882987 140.77884,38.153929 141.23869,39.772277 142.16751,40.734229 143.09177,41.700244 144.2954,42.181214 145.77407,42.181214 146.86898,42.181214 147.80716,41.876165 148.5939,41.261276 149.38063,40.650696 149.94489,39.684682 150.29099,38.371369 Z M 156.18791,37.42215 156.18791,33.979991 163.85129,33.979991 163.85129,37.42215 156.18791,37.42215 Z M 164.23169,39.132416 168.23163,38.785379 C 168.46875,39.97317 168.95693,40.842943 169.69614,41.399283 170.43056,41.951288 171.42106,42.231613 172.67244,42.231613 173.99463,42.231613 174.99473,41.984892 175.66291,41.487114 176.33613,40.993671 176.67261,40.416447 176.67261,39.755716 176.67261,39.328986 176.53029,38.969463 176.24564,38.672578 175.96629,38.371369 175.47355,38.112162 174.76698,37.894474 174.2884,37.743994 173.18918,37.484787 171.47817,37.108456 169.2742,36.627486 167.72953,36.03348 166.84294,35.330982 165.59181,34.343836 164.96659,33.13925 164.96659,31.717459 164.96659,30.801596 165.26036,29.948383 165.84813,29.149396 166.43543,28.354746 167.28385,27.748489 168.38835,27.330404 169.49718,26.916394 170.82896,26.707104 172.3926,26.707104 174.95201,26.707104 176.87158,27.200559 178.16545,28.187705 179.45427,29.178678 180.1323,30.496313 180.19829,32.14803 L 176.08964,32.307156 C 175.9142,31.382895 175.53498,30.717841 174.95682,30.316552 174.37864,29.910705 173.51151,29.709812 172.35492,29.709812 171.16041,29.709812 170.22223,29.923177 169.5495,30.358305 169.1134,30.634073 168.89523,31.006564 168.89523,31.470738 168.89523,31.897221 169.09925,32.261314 169.50653,32.562275 170.02327,32.947004 171.28377,33.348541 173.28399,33.762551 175.28394,34.180635 176.76262,34.611441 177.72,35.054732 178.67714,35.502346 179.42572,36.108603 179.97102,36.882618 180.51127,37.656386 180.78127,38.609693 180.78127,39.743244 180.78127,40.772143 180.45893,41.737923 179.80972,42.633137 179.16051,43.532205 178.24585,44.201334 177.06118,44.636462 175.87604,45.075443 174.39737,45.293131 172.62995,45.293131 170.05639,45.293131 168.08018,44.770147 166.70088,43.720364 165.32204,42.670829 164.49714,41.139829 164.23169,39.132416 Z M 183.49333,44.975114 183.49333,27.158792 187.60271,27.158792 187.60271,41.947213 197.82021,41.947213 197.82021,44.975114 183.49333,44.975114 Z" class="fil1" id="picsl" style="clip-rule:evenodd;fill:none;fill-rule:nonzero;stroke:black;stroke-width:0.13060249;stroke-linecap:round;stroke-linejoin:round;stroke-miterlimit:4;stroke-dasharray:none;stroke-opacity:1">
<desc id="desc4266">El texto &quot;PIC-SL&quot;</desc>
<title id="title4268">PIC-SL</title>
</path>
<g transform="matrix(1.3060249,0,0,1.3060249,2.0481308,3.3493703)" id="proyectos" style="font-weight:bold;font-size:9.19574547px;font-family:Arial;clip-rule:evenodd;fill:none;fill-rule:evenodd;stroke:black;stroke-width:0.1;stroke-linecap:round;stroke-linejoin:round;stroke-miterlimit:4;stroke-dasharray:none;stroke-opacity:1">
<desc id="desc4330">Línea de texto con la palabra &quot;proyectos&quot;</desc>
<title id="title4328">Proyectos</title>
<path id="path4310" style="font-weight:bold;font-size:9.19574547px;font-family:Arial;clip-rule:evenodd;fill:none;fill-rule:evenodd;stroke:black;stroke-width:0.1;stroke-linecap:round;stroke-linejoin:round;stroke-miterlimit:4;stroke-dasharray:none;stroke-opacity:1" d="M 13.557673,17.339701 13.557673,10.757199 15.690475,10.757199 Q 16.902805,10.757199 17.270994,10.855982 17.836747,11.004155 18.218407,11.502558 18.600066,11.99647 18.600066,12.782239 18.600066,13.388404 18.380051,13.801494 18.160035,14.214584 17.818787,14.45256 17.482029,14.686046 17.1318,14.762378 16.655848,14.85667 15.753336,14.85667 L 14.886745,14.85667 14.886745,17.339701 13.557673,17.339701 Z M 14.886745,11.870747 14.886745,13.738632 15.614143,13.738632 Q 16.399912,13.738632 16.664829,13.63536 16.929745,13.532087 17.077919,13.312072 17.230583,13.092057 17.230583,12.800199 17.230583,12.440991 17.019547,12.207505 16.808512,11.974019 16.485224,11.915648 16.247248,11.870747 15.528831,11.870747 L 14.886745,11.870747 Z" />
<path id="path4312" style="font-weight:bold;font-size:9.19574547px;font-family:Arial;clip-rule:evenodd;fill:none;fill-rule:evenodd;stroke:black;stroke-width:0.1;stroke-linecap:round;stroke-linejoin:round;stroke-miterlimit:4;stroke-dasharray:none;stroke-opacity:1" d="M 19.704633,17.339701 19.704633,10.757199 22.501972,10.757199 Q 23.557148,10.757199 24.0331,10.936804 24.513541,11.111918 24.800908,11.565419 25.088275,12.01892 25.088275,12.602635 25.088275,13.343503 24.652735,13.828435 24.217194,14.308876 23.350603,14.434599 23.781653,14.686046 24.06004,14.986883 24.342917,15.28772 24.818869,16.055529 L 25.622599,17.339701 24.0331,17.339701 23.072216,15.907356 Q 22.560343,15.139547 22.371759,14.941982 22.183174,14.739927 21.972139,14.668085 21.761104,14.591753 21.303113,14.591753 L 21.033706,14.591753 21.033706,17.339701 19.704633,17.339701 Z M 21.033706,13.541068 22.01704,13.541068 Q 22.973434,13.541068 23.211409,13.460246 23.449385,13.379424 23.584089,13.181859 23.718792,12.984294 23.718792,12.687947 23.718792,12.355678 23.539187,12.153624 23.364073,11.947078 23.040785,11.893197 22.879141,11.870747 22.070921,11.870747 L 21.033706,11.870747 21.033706,13.541068 Z" />
<path id="path4314" style="font-weight:bold;font-size:9.19574547px;font-family:Arial;clip-rule:evenodd;fill:none;fill-rule:evenodd;stroke:black;stroke-width:0.1;stroke-linecap:round;stroke-linejoin:round;stroke-miterlimit:4;stroke-dasharray:none;stroke-opacity:1" d="M 26.0761,14.088861 Q 26.0761,13.083076 26.376937,12.40058 26.601443,11.897687 26.987592,11.498067 27.378232,11.098448 27.840713,10.905373 28.455858,10.644947 29.259588,10.644947 30.714384,10.644947 31.585465,11.547459 32.461037,12.449971 32.461037,14.05743 32.461037,15.651419 31.594445,16.553931 30.727854,17.451953 29.277549,17.451953 27.809283,17.451953 26.942691,16.558422 26.0761,15.6604 26.0761,14.088861 Z M 27.445584,14.04396 Q 27.445584,15.161997 27.961946,15.741222 28.478309,16.315956 29.273058,16.315956 30.067808,16.315956 30.57519,15.745712 31.087063,15.170978 31.087063,14.025999 31.087063,12.894492 30.588661,12.337718 30.094749,11.780944 29.273058,11.780944 28.451368,11.780944 27.948476,12.346698 27.445584,12.907962 27.445584,14.04396 Z" />
<path id="path4316" style="font-weight:bold;font-size:9.19574547px;font-family:Arial;clip-rule:evenodd;fill:none;fill-rule:evenodd;stroke:black;stroke-width:0.1;stroke-linecap:round;stroke-linejoin:round;stroke-miterlimit:4;stroke-dasharray:none;stroke-opacity:1" d="M 35.222453,17.339701 35.222453,14.569303 32.811264,10.757199 34.369333,10.757199 35.918421,13.361463 37.436078,10.757199 38.967205,10.757199 36.547036,14.578283 36.547036,17.339701 35.222453,17.339701 Z" />
<path id="path4318" style="font-weight:bold;font-size:9.19574547px;font-family:Arial;clip-rule:evenodd;fill:none;fill-rule:evenodd;stroke:black;stroke-width:0.1;stroke-linecap:round;stroke-linejoin:round;stroke-miterlimit:4;stroke-dasharray:none;stroke-opacity:1" d="M 39.636232,17.339701 39.636232,10.757199 44.516982,10.757199 44.516982,11.870747 40.965305,11.870747 40.965305,13.330032 44.270026,13.330032 44.270026,14.43909 40.965305,14.43909 40.965305,16.230644 44.642705,16.230644 44.642705,17.339701 39.636232,17.339701 Z" />
<path id="path4320" style="font-weight:bold;font-size:9.19574547px;font-family:Arial;clip-rule:evenodd;fill:none;fill-rule:evenodd;stroke:black;stroke-width:0.1;stroke-linecap:round;stroke-linejoin:round;stroke-miterlimit:4;stroke-dasharray:none;stroke-opacity:1" d="M 49.990427,14.919531 51.279089,15.328131 Q 50.982741,16.405758 50.291264,16.931101 49.604278,17.451953 48.544612,17.451953 47.233499,17.451953 46.389359,16.558422 45.545218,15.6604 45.545218,14.106821 45.545218,12.463441 46.393849,11.556439 47.24248,10.644947 48.625434,10.644947 49.833273,10.644947 50.587612,11.358874 51.036623,11.780944 51.261128,12.571204 L 49.945526,12.885511 Q 49.828783,12.373639 49.456104,12.077292 49.087915,11.780944 48.558082,11.780944 47.826194,11.780944 47.368203,12.306287 46.914702,12.83163 46.914702,14.008039 46.914702,15.25629 47.363713,15.786123 47.812724,16.315956 48.531141,16.315956 49.060974,16.315956 49.442634,15.979197 49.824293,15.642439 49.990427,14.919531 Z" />
<path id="path4322" style="font-weight:bold;font-size:9.19574547px;font-family:Arial;clip-rule:evenodd;fill:none;fill-rule:evenodd;stroke:black;stroke-width:0.1;stroke-linecap:round;stroke-linejoin:round;stroke-miterlimit:4;stroke-dasharray:none;stroke-opacity:1" d="M 53.905803,17.339701 53.905803,11.870747 51.952605,11.870747 51.952605,10.757199 57.183583,10.757199 57.183583,11.870747 55.234875,11.870747 55.234875,17.339701 53.905803,17.339701 Z" />
<path id="path4324" style="font-weight:bold;font-size:9.19574547px;font-family:Arial;clip-rule:evenodd;fill:none;fill-rule:evenodd;stroke:black;stroke-width:0.1;stroke-linecap:round;stroke-linejoin:round;stroke-miterlimit:4;stroke-dasharray:none;stroke-opacity:1" d="M 57.605653,14.088861 Q 57.605653,13.083076 57.90649,12.40058 58.130995,11.897687 58.517145,11.498067 58.907784,11.098448 59.370266,10.905373 59.985411,10.644947 60.789141,10.644947 62.243936,10.644947 63.115018,11.547459 63.990589,12.449971 63.990589,14.05743 63.990589,15.651419 63.123998,16.553931 62.257407,17.451953 60.807101,17.451953 59.338835,17.451953 58.472244,16.558422 57.605653,15.6604 57.605653,14.088861 Z M 58.975136,14.04396 Q 58.975136,15.161997 59.491499,15.741222 60.007861,16.315956 60.802611,16.315956 61.59736,16.315956 62.104743,15.745712 62.616615,15.170978 62.616615,14.025999 62.616615,12.894492 62.118213,12.337718 61.624301,11.780944 60.802611,11.780944 59.980921,11.780944 59.478028,12.346698 58.975136,12.907962 58.975136,14.04396 Z" />
<path id="path4326" style="font-weight:bold;font-size:9.19574547px;font-family:Arial;clip-rule:evenodd;fill:none;fill-rule:evenodd;stroke:black;stroke-width:0.1;stroke-linecap:round;stroke-linejoin:round;stroke-miterlimit:4;stroke-dasharray:none;stroke-opacity:1" d="M 64.695539,15.197918 65.988691,15.072195 Q 66.105433,15.723261 66.460152,16.028589 66.819361,16.333916 67.425526,16.333916 68.067612,16.333916 68.3909,16.064509 68.718678,15.790613 68.718678,15.426914 68.718678,15.193428 68.579484,15.031784 68.444781,14.86565 68.103532,14.744417 67.870047,14.663595 67.039376,14.45705 65.97073,14.192134 65.53968,13.805984 64.933515,13.262681 64.933515,12.481402 64.933515,11.978509 65.216392,11.542969 65.503759,11.102938 66.038082,10.873942 66.576895,10.644947 67.335724,10.644947 68.574994,10.644947 69.199119,11.18825 69.827735,11.731553 69.859166,12.638555 L 68.530093,12.696927 Q 68.444781,12.189544 68.161904,11.969529 67.883517,11.745024 67.322253,11.745024 66.743029,11.745024 66.415251,11.982999 66.204216,12.135663 66.204216,12.391599 66.204216,12.625085 66.401781,12.791219 66.653227,13.002254 67.623091,13.23125 68.592954,13.460246 69.055436,13.707202 69.522407,13.949668 69.782834,14.376228 70.04775,14.798298 70.04775,15.422424 70.04775,15.988178 69.733442,16.48209 69.419135,16.976002 68.844401,17.218468 68.269667,17.456444 67.412056,17.456444 66.163805,17.456444 65.494779,16.881709 64.825752,16.302485 64.695539,15.197918 Z" />
</g>
<text font-weight="bold" font-size="9.195745px" x="1.358803" y="39.411785" class="fil6 fnt2" id="informaticos" style="font-weight:bold;font-size:12.00987244px;font-family:Arial;clip-rule:evenodd;fill:none;fill-rule:evenodd;stroke:black;stroke-width:0.13060249;stroke-linecap:round;stroke-linejoin:round;stroke-miterlimit:4;stroke-dasharray:none;stroke-opacity:1"><desc id="desc4276">Línea de texto con la palabra &quot;Informáticos&quot;.</desc>
<title id="title4278">Informáticos</title>
INFORMÁTICOS</text>
<text font-weight="bold" font-size="9.195745px" x="2.1680539" y="52.830475" class="fil6 fnt2" id="canarias" style="font-weight:bold;font-size:12.00987244px;font-family:Arial;clip-rule:evenodd;fill:none;fill-rule:evenodd;stroke:black;stroke-width:0.13060249;stroke-miterlimit:4;stroke-dasharray:none;stroke-opacity:1"><desc id="desc4281">Línea de texto con la palabra &quot;Canarias, S.L.&quot;</desc>
<title id="title4283">Canarias, S.L.</title>
CANARIAS, S.L.</text>
<g transform="translate(0,22)" id="g4285">
<title id="title4287">background</title>
<rect style="fill:none" x="-1" y="-1" width="582" height="402" id="canvas_background" />
</g>
</svg>
