<?xml version="1.0" encoding="UTF-8" standalone="no"?>
<!-- Created with Inkscape (http://www.inkscape.org/) -->

<svg xmlns:dc="http://purl.org/dc/elements/1.1/" xmlns:cc="http://creativecommons.org/ns#" xmlns:rdf="http://www.w3.org/1999/02/22-rdf-syntax-ns#" xmlns:svg="http://www.w3.org/2000/svg" xmlns="http://www.w3.org/2000/svg" xmlns:sodipodi="http://sodipodi.sourceforge.net/DTD/sodipodi-0.dtd" xmlns:inkscape="http://www.inkscape.org/namespaces/inkscape" width="155" height="55" viewBox="0 0 155 54.999998" id="svg3566" version="1.1" inkscape:version="0.91 r13725" inkscape:export-filename="/tmp/LOGOS/logo.png" inkscape:export-xdpi="72" inkscape:export-ydpi="72" sodipodi:docname="logo-gris.svg">
    <defs id="defs3568">
        <filter style="color-interpolation-filters:sRGB" inkscape:label="Drop Shadow" id="filter5554">
            <feFlood flood-opacity="0.494118" flood-color="rgb(0,0,0)" result="flood" id="feFlood5556" />
            <feComposite in="flood" in2="SourceGraphic" operator="in" result="composite1" id="feComposite5558" />
            <feGaussianBlur in="composite1" stdDeviation="0.5" result="blur" id="feGaussianBlur5560" />
            <feOffset dx="2" dy="2" result="offset" id="feOffset5562" />
            <feComposite in="SourceGraphic" in2="offset" operator="over" result="composite2" id="feComposite5564" />
        </filter>
        <filter style="color-interpolation-filters:sRGB" inkscape:label="Drop Shadow" id="filter5566">
            <feFlood flood-opacity="0.494118" flood-color="rgb(0,0,0)" result="flood" id="feFlood5568" />
            <feComposite in="flood" in2="SourceGraphic" operator="in" result="composite1" id="feComposite5570" />
            <feGaussianBlur in="composite1" stdDeviation="0.5" result="blur" id="feGaussianBlur5572" />
            <feOffset dx="2" dy="2" result="offset" id="feOffset5574" />
            <feComposite in="SourceGraphic" in2="offset" operator="over" result="composite2" id="feComposite5576" />
        </filter>
        <filter style="color-interpolation-filters:sRGB" inkscape:label="Drop Shadow" id="filter5578">
            <feFlood flood-opacity="0.494118" flood-color="rgb(0,0,0)" result="flood" id="feFlood5580" />
            <feComposite in="flood" in2="SourceGraphic" operator="in" result="composite1" id="feComposite5582" />
            <feGaussianBlur in="composite1" stdDeviation="0.5" result="blur" id="feGaussianBlur5584" />
            <feOffset dx="2" dy="2" result="offset" id="feOffset5586" />
            <feComposite in="SourceGraphic" in2="offset" operator="over" result="composite2" id="feComposite5588" />
        </filter>
        <filter style="color-interpolation-filters:sRGB" inkscape:label="Drop Shadow" id="filter5590">
            <feFlood flood-opacity="0.494118" flood-color="rgb(0,0,0)" result="flood" id="feFlood5592" />
            <feComposite in="flood" in2="SourceGraphic" operator="in" result="composite1" id="feComposite5594" />
            <feGaussianBlur in="composite1" stdDeviation="0.5" result="blur" id="feGaussianBlur5596" />
            <feOffset dx="2" dy="2" result="offset" id="feOffset5598" />
            <feComposite in="SourceGraphic" in2="offset" operator="over" result="composite2" id="feComposite5600" />
        </filter>
        <filter style="color-interpolation-filters:sRGB" inkscape:label="Drop Shadow" id="filter5622">
            <feFlood flood-opacity="0.494118" flood-color="rgb(0,0,0)" result="flood" id="feFlood5624" />
            <feComposite in="flood" in2="SourceGraphic" operator="in" result="composite1" id="feComposite5626" />
            <feGaussianBlur in="composite1" stdDeviation="0.5" result="blur" id="feGaussianBlur5628" />
            <feOffset dx="2" dy="2" result="offset" id="feOffset5630" />
            <feComposite in="SourceGraphic" in2="offset" operator="over" result="composite2" id="feComposite5632" />
        </filter>
    </defs>
    <sodipodi:namedview id="base" pagecolor="#ffffff" bordercolor="#666666" borderopacity="1.0" inkscape:pageopacity="0.0" inkscape:pageshadow="2" inkscape:zoom="3.7347407" inkscape:cx="135.45236" inkscape:cy="41.183436" inkscape:document-units="px" inkscape:current-layer="layer1" showgrid="false" borderlayer="true" fit-margin-top="0" fit-margin-left="0" fit-margin-right="0" fit-margin-bottom="0" inkscape:window-width="1920" inkscape:window-height="986" inkscape:window-x="0" inkscape:window-y="27" inkscape:window-maximized="1" units="px" />
    <metadata id="metadata3571">
        <rdf:RDF>
            <cc:Work rdf:about="">
                <dc:format>image/svg+xml</dc:format>
                <dc:type rdf:resource="http://purl.org/dc/dcmitype/StillImage" />
                <dc:title></dc:title>
            </cc:Work>
        </rdf:RDF>
    </metadata>
    <g inkscape:label="Capa 1" inkscape:groupmode="layer" id="layer1" transform="translate(-310.74628,-463.78186)">
        <g id="g6211" transform="matrix(0.5701837,0,0,0.5701837,132.08195,212.92789)">
            <g style="fill:#e6e6e6;fill-opacity:1;filter:url(#filter5622)" transform="matrix(1.1207763,0,0,1.1742873,-50.570706,134.43097)" id="g4463">
                <text style="font-weight:bold;font-size:21.90685081px;font-family:Arial;clip-rule:evenodd;fill:#e6e6e6;fill-opacity:1;fill-rule:evenodd;image-rendering:optimizeQuality;shape-rendering:geometricPrecision;text-rendering:geometricPrecision" id="text218" class="fil6 fnt1" y="283.06232" x="412.71451">Proyectos</text>
                <text style="font-weight:bold;font-size:21.90685081px;font-family:Arial;clip-rule:evenodd;fill:#e6e6e6;fill-opacity:1;fill-rule:evenodd;image-rendering:optimizeQuality;shape-rendering:geometricPrecision;text-rendering:geometricPrecision" id="text220" class="fil6 fnt1" y="307.53238" x="412.71451">Informáticos</text>
                <text style="font-weight:bold;font-size:21.90685081px;font-family:Arial;clip-rule:evenodd;fill:#e6e6e6;fill-opacity:1;fill-rule:evenodd;image-rendering:optimizeQuality;shape-rendering:geometricPrecision;text-rendering:geometricPrecision" id="text222" class="fil6 fnt1" y="332.00955" x="412.71451">Canarias, S.L.</text>
            </g>
            <path style="clip-rule:evenodd;fill:#e6e6e6;fill-opacity:1;fill-rule:nonzero;filter:url(#filter5590);image-rendering:optimizeQuality;shape-rendering:geometricPrecision;text-rendering:geometricPrecision" inkscape:connector-curvature="0" d="M 326.80071,472.71857 326.80071,472.71963 326.80071,472.72034 326.80071,472.78787 326.80071,503.90629 326.80071,504.10535 326.80071,504.10677 326.80035,504.10677 C 326.80071,508.38992 328.51248,512.26892 331.27909,515.07661 334.04464,517.88359 337.86539,519.62031 342.08441,519.62067 L 342.08441,519.62067 342.08689,519.62067 342.0883,519.62067 342.0883,519.62067 C 346.30803,519.62067 350.12984,517.88323 352.89574,515.0759 355.66165,512.26857 357.37342,508.39028 357.37378,504.10819 L 357.37378,504.10819 357.37378,504.10535 357.37378,504.10535 357.37378,504.03782 357.4411,504.03782 365.97126,504.03782 366.03893,504.03782 366.03893,504.10535 366.03893,504.10641 366.03858,504.10641 C 366.03822,510.81692 363.35665,516.89366 359.02248,521.29233 354.6883,525.69065 348.70118,528.41196 342.08972,528.41268 L 342.08972,528.41303 342.08689,528.41303 342.08582,528.41303 342.08582,528.41268 C 335.47295,528.41232 329.48476,525.64088 325.15059,521.19175 320.81712,516.74366 318.13626,510.61822 318.13555,503.90878 L 318.13555,503.90878 318.13555,503.90629 318.13555,503.90629 318.14724,472.72034 318.14759,472.65316 C 318.15291,470.43943 318.44984,468.29537 319.00082,466.25936 320.11484,462.14505 322.26882,458.46652 325.15696,455.53442 328.04511,452.60197 331.6685,450.41491 335.72204,449.28245 337.74846,448.71622 339.8833,448.41338 342.08689,448.41303 L 342.08689,448.41303 342.0883,448.41303 342.0883,448.41303 C 348.70082,448.41338 354.68901,451.13539 359.02354,455.53442 363.35665,459.93239 366.03787,466.00806 366.03858,472.71785 L 366.03893,472.71785 366.03893,472.72034 366.03893,472.78787 365.97126,472.78787 357.4411,472.78787 357.37378,472.78787 357.37378,472.72034 357.37378,472.72034 357.37378,472.71892 357.37378,472.71892 C 357.37378,468.43577 355.66165,464.55641 352.89504,461.74908 350.12948,458.94246 346.30874,457.20574 342.08972,457.20504 L 342.08972,457.20539 342.08689,457.20539 C 341.66559,457.20539 341.24712,457.2228 340.83397,457.25657 339.69374,457.35041 338.58858,457.57185 337.53374,457.90527 L 337.53374,457.90527 C 336.47748,458.23939 335.47047,458.68689 334.52724,459.23251 329.91598,461.90121 326.80496,466.93614 326.80035,472.70684 L 326.80071,472.70684 326.80071,472.70719 326.80071,472.70755 326.80071,472.7079 326.80071,472.70825 326.80071,472.7175 326.80071,472.71857 Z" class="fil0" id="_152766672" />
            <path style="clip-rule:evenodd;fill:#2a1f74;fill-rule:nonzero;stroke-width:282.222229;stroke-miterlimit:4;stroke-dasharray:none;filter:url(#filter5578);image-rendering:optimizeQuality;shape-rendering:geometricPrecision;text-rendering:geometricPrecision" inkscape:connector-curvature="0" d="M 330.3713,501.9883 330.3713,474.81856 340.31133,474.81856 C 344.07681,474.81856 346.53551,474.95789 347.67858,475.22981 349.43641,475.63466 350.91539,476.52044 352.10169,477.88678 353.28799,479.25313 353.88114,481.01793 353.88114,483.17514 353.88114,484.84504 353.53815,486.24941 352.85216,487.38186 352.16618,488.52037 351.30161,489.41255 350.24393,490.06408 349.1937,490.70922 348.12185,491.13931 347.03547,491.34796 345.55649,491.60744 343.41279,491.74038 340.60401,491.74038 L 336.56641,491.74038 336.56641,501.9883 330.3713,501.9883 Z M 336.56641,479.41735 336.56641,487.12239 339.95382,487.12239 C 342.39799,487.12239 344.03429,486.98306 344.85598,486.6987 345.67767,486.41398 346.32078,485.9711 346.79275,485.36363 347.25693,484.75653 347.49291,484.05451 347.49291,483.25121 347.49291,482.26413 347.16409,481.44802 346.50681,480.80288 345.85661,480.16413 345.02039,479.75928 344.01976,479.6011 343.27673,479.47457 341.79031,479.41735 339.56086,479.41735 L 336.56641,479.41735 Z M 357.44181,474.81856 365.967,474.81856 365.967,479.95514 357.44181,479.95514 357.44181,474.81856 Z M 357.44181,482.30856 365.967,482.30856 365.967,501.9883 357.44181,501.9883 357.44181,482.30856 Z M 390.042,491.99949 396.04436,493.68254 C 395.1224,496.64911 393.59346,498.85076 391.44976,500.29281 389.31279,501.72882 386.59047,502.45003 383.29625,502.45003 379.22287,502.45003 375.87161,501.21662 373.24921,498.75585 370.6261,496.28833 369.31153,492.91691 369.31153,488.64691 369.31153,484.12383 370.63354,480.61307 373.27082,478.10823 375.90704,475.60942 379.3731,474.35683 383.67468,474.35683 387.42633,474.35683 390.47783,475.33751 392.82173,477.30455 394.22204,478.46225 395.26554,480.1325 395.9657,482.30856 L 389.82763,483.60523 C 389.47011,482.19446 388.71291,481.0812 387.55495,480.26544 386.4048,479.44898 385.00377,479.04412 383.36074,479.04412 381.08771,479.04412 379.2374,479.76568 377.82255,481.21377 376.40736,482.65654 375.69976,484.99682 375.69976,488.23566 375.69976,491.67071 376.39319,494.11867 377.79385,495.57388 379.18743,497.03477 381.00232,497.76238 383.23177,497.76238 384.88259,497.76238 386.29708,497.30065 387.48338,496.37079 388.66968,495.44734 389.52007,493.9861 390.042,491.99949 Z" class="fil1" id="_152759448" />
            <path id="path4414" class="fil1" d="M 330.3713,501.9883 330.3713,474.81856 340.31133,474.81856 C 344.07681,474.81856 346.53551,474.95789 347.67858,475.22981 349.43641,475.63466 350.91539,476.52044 352.10169,477.88678 353.28799,479.25313 353.88114,481.01793 353.88114,483.17514 353.88114,484.84504 353.53815,486.24941 352.85216,487.38186 352.16618,488.52037 351.30161,489.41255 350.24393,490.06408 349.1937,490.70922 348.12185,491.13931 347.03547,491.34796 345.55649,491.60744 343.41279,491.74038 340.60401,491.74038 L 336.56641,491.74038 336.56641,501.9883 330.3713,501.9883 Z M 336.56641,479.41735 336.56641,487.12239 339.95382,487.12239 C 342.39799,487.12239 344.03429,486.98306 344.85598,486.6987 345.67767,486.41398 346.32078,485.9711 346.79275,485.36363 347.25693,484.75653 347.49291,484.05451 347.49291,483.25121 347.49291,482.26413 347.16409,481.44802 346.50681,480.80288 345.85661,480.16413 345.02039,479.75928 344.01976,479.6011 343.27673,479.47457 341.79031,479.41735 339.56086,479.41735 L 336.56641,479.41735 Z M 357.44181,474.81856 365.967,474.81856 365.967,479.95514 357.44181,479.95514 357.44181,474.81856 Z M 357.44181,482.30856 365.967,482.30856 365.967,501.9883 357.44181,501.9883 357.44181,482.30856 Z M 390.042,491.99949 396.04436,493.68254 C 395.1224,496.64911 393.59346,498.85076 391.44976,500.29281 389.31279,501.72882 386.59047,502.45003 383.29625,502.45003 379.22287,502.45003 375.87161,501.21662 373.24921,498.75585 370.6261,496.28833 369.31153,492.91691 369.31153,488.64691 369.31153,484.12383 370.63354,480.61307 373.27082,478.10823 375.90704,475.60942 379.3731,474.35683 383.67468,474.35683 387.42633,474.35683 390.47783,475.33751 392.82173,477.30455 394.22204,478.46225 395.26554,480.1325 395.9657,482.30856 L 389.82763,483.60523 C 389.47011,482.19446 388.71291,481.0812 387.55495,480.26544 386.4048,479.44898 385.00377,479.04412 383.36074,479.04412 381.08771,479.04412 379.2374,479.76568 377.82255,481.21377 376.40736,482.65654 375.69976,484.99682 375.69976,488.23566 375.69976,491.67071 376.39319,494.11867 377.79385,495.57388 379.18743,497.03477 381.00232,497.76238 383.23177,497.76238 384.88259,497.76238 386.29708,497.30065 387.48338,496.37079 388.66968,495.44734 389.52007,493.9861 390.042,491.99949 Z" inkscape:connector-curvature="0" style="clip-rule:evenodd;fill:#2a1f74;fill-rule:nonzero;stroke-width:282.222229;stroke-miterlimit:4;stroke-dasharray:none;filter:url(#filter5566);image-rendering:optimizeQuality;shape-rendering:geometricPrecision;text-rendering:geometricPrecision" />
            <path style="clip-rule:evenodd;fill:#e6e6e6;fill-opacity:1;fill-rule:nonzero;stroke-width:282.222229;stroke-miterlimit:4;stroke-dasharray:none;filter:url(#filter5554);image-rendering:optimizeQuality;shape-rendering:geometricPrecision;text-rendering:geometricPrecision" inkscape:connector-curvature="0" d="M 330.3713,501.9883 330.3713,474.81856 340.31133,474.81856 C 344.07681,474.81856 346.53551,474.95789 347.67858,475.22981 349.43641,475.63466 350.91539,476.52044 352.10169,477.88678 353.28799,479.25313 353.88114,481.01793 353.88114,483.17514 353.88114,484.84504 353.53815,486.24941 352.85216,487.38186 352.16618,488.52037 351.30161,489.41255 350.24393,490.06408 349.1937,490.70922 348.12185,491.13931 347.03547,491.34796 345.55649,491.60744 343.41279,491.74038 340.60401,491.74038 L 336.56641,491.74038 336.56641,501.9883 330.3713,501.9883 Z M 336.56641,479.41735 336.56641,487.12239 339.95382,487.12239 C 342.39799,487.12239 344.03429,486.98306 344.85598,486.6987 345.67767,486.41398 346.32078,485.9711 346.79275,485.36363 347.25693,484.75653 347.49291,484.05451 347.49291,483.25121 347.49291,482.26413 347.16409,481.44802 346.50681,480.80288 345.85661,480.16413 345.02039,479.75928 344.01976,479.6011 343.27673,479.47457 341.79031,479.41735 339.56086,479.41735 L 336.56641,479.41735 Z M 357.44181,474.81856 365.967,474.81856 365.967,479.95514 357.44181,479.95514 357.44181,474.81856 Z M 357.44181,482.30856 365.967,482.30856 365.967,501.9883 357.44181,501.9883 357.44181,482.30856 Z M 390.042,491.99949 396.04436,493.68254 C 395.1224,496.64911 393.59346,498.85076 391.44976,500.29281 389.31279,501.72882 386.59047,502.45003 383.29625,502.45003 379.22287,502.45003 375.87161,501.21662 373.24921,498.75585 370.6261,496.28833 369.31153,492.91691 369.31153,488.64691 369.31153,484.12383 370.63354,480.61307 373.27082,478.10823 375.90704,475.60942 379.3731,474.35683 383.67468,474.35683 387.42633,474.35683 390.47783,475.33751 392.82173,477.30455 394.22204,478.46225 395.26554,480.1325 395.9657,482.30856 L 389.82763,483.60523 C 389.47011,482.19446 388.71291,481.0812 387.55495,480.26544 386.4048,479.44898 385.00377,479.04412 383.36074,479.04412 381.08771,479.04412 379.2374,479.76568 377.82255,481.21377 376.40736,482.65654 375.69976,484.99682 375.69976,488.23566 375.69976,491.67071 376.39319,494.11867 377.79385,495.57388 379.18743,497.03477 381.00232,497.76238 383.23177,497.76238 384.88259,497.76238 386.29708,497.30065 387.48338,496.37079 388.66968,495.44734 389.52007,493.9861 390.042,491.99949 Z" class="fil1" id="path4416" />
        </g>
    </g>
</svg>
