<svg xmlns:dc="http://purl.org/dc/elements/1.1/" xmlns:cc="http://creativecommons.org/ns#" xmlns:rdf="http://www.w3.org/1999/02/22-rdf-syntax-ns#"  xmlns="http://www.w3.org/2000/svg" width="100%" height="100%" viewBox="0 0 150 50.000001" id="svg2" version="1.1" xmlns:xlink="http://www.w3.org/1999/xlink"><rect id="svgEditorBackground" x="0" y="0" width="150" height="50" style="fill: none; stroke: none;"/>
	<defs id="defs4"/>
	<metadata id="metadata7">
		<rdf:RDF>
			<cc:Work rdf:about="">
				<dc:format>image/svg+xml</dc:format>
				<dc:type rdf:resource="http://purl.org/dc/dcmitype/StillImage"/>
				<dc:title/>
			</cc:Work>
		</rdf:RDF>
	</metadata>
	<a id="e1_hyperlink" xlink:title="Enlace a PICSL" xlink:href="http://www.pic-sl.com/" target="_blank" ><path id="c" class="fil3" d="M 81.357816,17.056177 81.357816,17.056177 81.357816,17.055253 81.357816,17.054704 81.357816,17.055253 81.357816,17.055808 81.357816,17.056177 81.357816,17.056177 77.031923,17.056177 C 77.030268,10.280102 82.458585,4.7867277 89.154723,4.7856282 95.852141,4.7856282 101.2834,10.28047 101.2834,17.056177 L 96.951806,17.056177 96.951806,17.056177 C 96.951806,12.700327 93.460218,9.1679384 89.154723,9.1679384 84.851426,9.1679384 81.361493,12.69665 81.357816,17.049377 L 81.357816,17.049559 81.357816,17.04974 81.357816,17.049559 81.357816,17.049377 81.357816,17.049559 81.357816,17.04974 81.357816,17.049927 81.357816,17.04974 81.357816,17.049927 81.357816,17.050109 81.357816,32.843119 81.357816,32.944009 C 81.357816,37.299677 84.849409,40.832061 89.154723,40.832061 93.460036,40.832061 96.951806,37.299677 96.951806,32.944009 L 96.951806,32.943828 101.2834,32.943828 C 101.2834,39.719534 95.85196,45.214376 89.154723,45.214376 82.457485,45.214376 77.026041,39.618826 77.026041,32.843119 L 77.031923,17.056177 81.357816,17.056177 Z" style="clip-rule:evenodd;fill:#70a6a7;fill-rule:evenodd;image-rendering:optimizeQuality;shape-rendering:geometricPrecision;text-rendering:geometricPrecision">
		<desc id="desc5541">La Aspirina</desc>
		<title id="title5539">C</title>
	</path></a>
	<path id="picsl" class="fil1" d="M 83.205236,31.872092 83.205236,18.118354 88.252974,18.118354 C 90.16526,18.118354 91.413596,18.188738 91.994118,18.32656 92.886863,18.531462 93.637923,18.979857 94.240316,19.671559 94.842704,20.363079 95.1439,21.256555 95.1439,22.348508 95.1439,23.194021 94.969686,23.904834 94.621449,24.478008 94.273026,25.05449 93.834003,25.506007 93.296848,25.835869 92.763371,26.162426 92.219236,26.38019 91.667566,26.485857 90.916506,26.617247 89.827863,26.684509 88.40164,26.684509 L 86.351341,26.684509 86.351341,31.872092 83.205236,31.872092 Z M 86.351341,20.446325 86.351341,24.346798 88.071411,24.346798 C 89.312579,24.346798 90.143576,24.276233 90.560728,24.132338 90.978068,23.988085 91.30462,23.764072 91.544255,23.456444 91.780031,23.149185 91.899846,22.793775 91.899846,22.387099 91.899846,21.887432 91.732799,21.474324 91.399079,21.147767 91.068849,20.824336 90.644343,20.619434 90.136227,20.539311 89.758765,20.475176 89.004034,20.446325 87.871835,20.446325 L 86.351341,20.446325 Z M 96.951993,18.118354 101.28119,18.118354 101.28119,20.71867 96.951993,20.71867 96.951993,18.118354 Z M 96.951993,21.909852 101.28119,21.909852 101.28119,31.872092 96.951993,31.872092 96.951993,21.909852 Z M 113.50691,26.815718 116.55488,27.667481 C 116.08682,29.169418 115.3104,30.283786 114.22176,31.013898 113.13661,31.740696 111.75413,32.105845 110.08129,32.105845 108.0128,32.105845 106.31092,31.4814 104.97916,30.235823 103.64721,28.98675 102.97976,27.280103 102.97976,25.118624 102.97976,22.828877 103.65088,21.051653 104.99018,19.783475 106.32893,18.518599 108.08887,17.884601 110.27332,17.884601 112.17863,17.884601 113.72816,18.380959 114.91843,19.376793 115.62961,19.962834 116.15941,20.808347 116.515,21.909852 L 113.39793,22.566453 C 113.21637,21.852149 112.83193,21.288716 112.24387,20.875608 111.65986,20.462314 110.94831,20.257413 110.114,20.257413 108.95975,20.257413 108.01996,20.622557 107.30161,21.355791 106.58308,22.086084 106.22363,23.270836 106.22363,24.910413 106.22363,26.649226 106.57573,27.888372 107.28691,28.624915 107.9946,29.36458 108.9162,29.732852 110.04839,29.732852 110.88674,29.732852 111.60509,29.49928 112.20748,29.028469 112.80987,28.560962 113.24191,27.821297 113.50691,26.815718 Z M 118.02208,26.088915 118.02208,23.453317 123.88979,23.453317 123.88979,26.088915 118.02208,26.088915 Z M 124.18106,27.398445 127.24374,27.132718 C 127.4253,28.042189 127.79909,28.708161 128.36509,29.134136 128.92742,29.556801 129.68583,29.771443 130.64399,29.771443 131.65637,29.771443 132.42213,29.582531 132.93374,29.201392 133.44921,28.823567 133.70685,28.381603 133.70685,27.875692 133.70685,27.548952 133.59788,27.273667 133.37993,27.046349 133.16603,26.815718 132.78875,26.617247 132.24774,26.450574 131.8813,26.335349 131.03965,26.136878 129.72956,25.848731 128.04202,25.480459 126.85929,25.025638 126.18045,24.487748 125.22248,23.731911 124.74376,22.809578 124.74376,21.72094 124.74376,21.01968 124.96869,20.366388 125.41874,19.754623 125.86842,19.146167 126.51804,18.681969 127.36374,18.361848 128.21275,18.044848 129.23247,17.884601 130.42972,17.884601 132.38942,17.884601 133.8592,18.262425 134.84989,19.018267 135.83672,19.777044 136.35587,20.785926 136.4064,22.05062 L 133.26048,22.172457 C 133.12615,21.464766 132.83579,20.955545 132.3931,20.648286 131.9504,20.337536 131.28645,20.18372 130.40087,20.18372 129.48626,20.18372 128.76791,20.34709 128.25281,20.68026 127.9189,20.891411 127.75185,21.176618 127.75185,21.532028 127.75185,21.85858 127.90806,22.137356 128.21991,22.367801 128.61557,22.66238 129.58071,22.969826 131.11224,23.286825 132.64357,23.606947 133.77577,23.936813 134.50882,24.276233 135.24168,24.618957 135.81486,25.083155 136.23238,25.675808 136.64604,26.268274 136.85278,26.9982 136.85278,27.866138 136.85278,28.653948 136.60597,29.393432 136.10888,30.078884 135.61179,30.767282 134.91145,31.279625 134.00437,31.612795 133.09693,31.948906 131.96474,32.115585 130.61146,32.115585 128.64093,32.115585 127.12778,31.715153 126.07167,30.911354 125.01592,30.107736 124.38431,28.935483 124.18106,27.398445 Z M 138.92935,31.872092 138.92935,18.230452 142.07583,18.230452 142.07583,29.553679 149.89919,29.553679 149.89919,31.872092 138.92935,31.872092 Z" style="clip-rule:evenodd;fill:#2a1f74;fill-rule:nonzero;image-rendering:optimizeQuality;shape-rendering:geometricPrecision;text-rendering:geometricPrecision">
		<desc id="desc4230">El texto "PIC-SL"</desc>
		<title id="title5535">PIC-SL</title>
	</path>
	<text style="font-weight:bold;font-size:9.19574451px;font-family:Arial;clip-rule:evenodd;fill:#2a1f74;fill-rule:evenodd;image-rendering:optimizeQuality;shape-rendering:geometricPrecision;text-rendering:geometricPrecision" id="proyectos" class="fil6 fnt2" y="17.339701" x="12.888646"><desc id="desc4220">Línea de texto con la palabra "proyectos"</desc><title id="title4218">Proyectos</title>PROYECTOS</text>
	<text style="font-weight:bold;font-size:9.19574451px;font-family:Arial;clip-rule:evenodd;fill:#2a1f74;fill-rule:evenodd;image-rendering:optimizeQuality;shape-rendering:geometricPrecision;text-rendering:geometricPrecision" id="informaticos" class="fil6 fnt2" y="27.612347" x="-0.52780563"><desc id="desc4224">Línea de texto con la palabra "Informáticos".</desc><title id="title4222">Informáticos</title>INFORMÁTICOS</text>
	<text style="font-weight:bold;font-size:9.19574451px;font-family:Arial;clip-rule:evenodd;fill:#2a1f74;fill-rule:evenodd;image-rendering:optimizeQuality;shape-rendering:geometricPrecision;text-rendering:geometricPrecision" id="canarias" class="fil6 fnt2" y="37.886799" x="0.091823071"><desc id="desc4228">Línea de texto con la palabra "Canarias, S.L."</desc><title id="title4226">Canarias, S.L.</title>CANARIAS, S.L.</text>
</svg>