<svg width="150" height="50.000001" xmlns="http://www.w3.org/2000/svg" xmlns:xlink="http://www.w3.org/1999/xlink">
 <metadata id="metadata7">image/svg+xml</metadata>

 <g>
  <title>Layer 1</title>
  <rect id="svgEditorBackground" x="0" y="0" width="150" height="50" fill="none" stroke="none"/>
  <a id="e1_hyperlink" xlink:title="Enlace a PICSL" xlink:href="http://www.pic-sl.com/">
   <path id="c" class="fil3" d="m81.35782,17.05618l0,0l0,-0.00093l0,-0.00055l0,0.00055l0,0.00056l0,0.00037l0,0l-4.3259,0c-0.00165,-6.77608 5.42666,-12.26945 12.1228,-12.27055c6.69742,0 12.12868,5.49484 12.12868,12.27055l-4.33159,0l0,0c0,-4.35585 -3.49159,-7.88824 -7.79709,-7.88824c-4.30329,0 -7.79323,3.52871 -7.7969,7.88144l0,0.00018l0,0.00018l0,-0.00018l0,-0.00018l0,0.00018l0,0.00018l0,0.00019l0,-0.00019l0,0.00019l0,0.00018l0,15.79301l0,0.10089c0,4.35567 3.49159,7.88805 7.7969,7.88805c4.30532,0 7.79709,-3.53238 7.79709,-7.88805l0,-0.00018l4.33159,0c0,6.7757 -5.43144,12.27055 -12.12868,12.27055c-6.69723,0 -12.12868,-5.59555 -12.12868,-12.37126l0.00588,-15.78694l4.3259,0z" fill-rule="evenodd" fill="#70a6a7" clip-rule="evenodd">
    <desc>La Aspirina</desc>
    <title>C</title>
   </path>
   <path id="picsl" class="fil1" d="m83.20524,31.87209l0,-13.75374l5.04773,0c1.91229,0 3.16063,0.07039 3.74115,0.20821c0.89274,0.2049 1.6438,0.6533 2.2462,1.345c0.60238,0.69152 0.90358,1.58499 0.90358,2.67695c0,0.84551 -0.17421,1.55632 -0.52245,2.1295c-0.34842,0.57648 -0.78745,1.028 -1.3246,1.35786c-0.53348,0.32656 -1.07761,0.54432 -1.62928,0.64999c-0.75106,0.13139 -1.83971,0.19865 -3.26593,0.19865l-2.0503,0l0,5.18758l-3.1461,0zm3.1461,-11.42576l0,3.90047l1.72007,0c1.24117,0 2.07217,-0.07057 2.48932,-0.21446c0.41734,-0.14425 0.74389,-0.36827 0.98353,-0.6759c0.23577,-0.30726 0.35559,-0.66266 0.35559,-1.06934c0,-0.49967 -0.16705,-0.91278 -0.50077,-1.23933c-0.33023,-0.32343 -0.75474,-0.52834 -1.26285,-0.60846c-0.37747,-0.06413 -1.1322,-0.09298 -2.26439,-0.09298l-1.5205,0zm10.60065,-2.32798l4.3292,0l0,2.60032l-4.3292,0l0,-2.60032zm0,3.7915l4.3292,0l0,9.96224l-4.3292,0l0,-9.96224zm16.55492,4.90587l3.04797,0.85176c-0.46806,1.50194 -1.24448,2.61631 -2.33312,3.34642c-1.08515,0.7268 -2.46763,1.09195 -4.14047,1.09195c-2.06849,0 -3.77037,-0.62445 -5.10213,-1.87003c-1.33195,-1.24907 -1.9994,-2.95572 -1.9994,-5.1172c0,-2.28974 0.67112,-4.06697 2.01042,-5.33515c1.33875,-1.26487 3.09869,-1.89887 5.28314,-1.89887c1.90531,0 3.45484,0.49636 4.64511,1.49219c0.71118,0.58604 1.24098,1.43156 1.59657,2.53306l-3.11707,0.6566c-0.18156,-0.7143 -0.566,-1.27773 -1.15406,-1.69084c-0.58401,-0.4133 -1.29556,-0.6182 -2.12987,-0.6182c-1.15425,0 -2.09404,0.36515 -2.81239,1.09838c-0.71853,0.73029 -1.07798,1.91505 -1.07798,3.55462c0,1.73882 0.3521,2.97796 1.06328,3.71451c0.70769,0.73966 1.62929,1.10793 2.76148,1.10793c0.83835,0 1.5567,-0.23357 2.15909,-0.70438c0.60239,-0.46751 1.03443,-1.20717 1.29943,-2.21275zm4.51517,-0.7268l0,-2.6356l5.86771,0l0,2.6356l-5.86771,0zm6.15898,1.30952l3.06268,-0.26572c0.18156,0.90947 0.55535,1.57544 1.12135,2.00142c0.56233,0.42266 1.32074,0.6373 2.2789,0.6373c1.01238,0 1.77814,-0.18891 2.28975,-0.57005c0.51547,-0.37782 0.77311,-0.81979 0.77311,-1.3257c0,-0.32674 -0.10897,-0.60202 -0.32692,-0.82934c-0.2139,-0.23063 -0.59118,-0.4291 -1.13219,-0.59578c-0.36644,-0.11522 -1.20809,-0.31369 -2.51818,-0.60184c-1.68754,-0.36827 -2.87027,-0.82309 -3.54911,-1.36098c-0.95797,-0.75584 -1.43669,-1.67817 -1.43669,-2.76681c0,-0.70126 0.22493,-1.35455 0.67498,-1.96632c0.44968,-0.60845 1.0993,-1.07265 1.945,-1.39277c0.84901,-0.317 1.86873,-0.47725 3.06598,-0.47725c1.9597,0 3.42948,0.37783 4.42017,1.13367c0.98683,0.75877 1.50598,1.76766 1.55651,3.03235l-3.14592,0.12184c-0.13433,-0.70769 -0.42469,-1.21691 -0.86738,-1.52417c-0.4427,-0.31075 -1.10665,-0.46457 -1.99223,-0.46457c-0.91461,0 -1.63296,0.16337 -2.14806,0.49654c-0.33391,0.21115 -0.50096,0.49636 -0.50096,0.85177c0,0.32655 0.15621,0.60533 0.46806,0.83577c0.39566,0.29458 1.3608,0.60203 2.89233,0.91903c1.53133,0.32012 2.66353,0.64998 3.39658,0.9894c0.73286,0.34273 1.30604,0.80693 1.72356,1.39958c0.41366,0.59246 0.6204,1.32239 0.6204,2.19033c0,0.78781 -0.24681,1.52729 -0.7439,2.21274c-0.49709,0.6884 -1.19743,1.20074 -2.10451,1.53391c-0.90744,0.33612 -2.03963,0.5028 -3.39291,0.5028c-1.97053,0 -3.48368,-0.40044 -4.53979,-1.20424c-1.05575,-0.80361 -1.68736,-1.97587 -1.89061,-3.51291zm14.74829,4.47365l0,-13.64164l3.14648,0l0,11.32323l7.82336,0l0,2.31841l-10.96984,0z" fill-rule="nonzero" fill="#2a1f74" clip-rule="evenodd">
    <desc>El texto "PIC-SL"</desc>
    <title>PIC-SL</title>
   </path>
   <text id="proyectos" class="fil6 fnt2" y="17.339701" x="12.888646" fill-rule="evenodd" fill="#2a1f74" clip-rule="evenodd" font-family="Arial" font-size="9.195745px" font-weight="bold">
    <desc>Línea de texto con la palabra "proyectos"</desc>
    <title>Proyectos</title>PROYECTOS</text>
   <text id="informaticos" class="fil6 fnt2" y="27.612347" x="-0.527806" fill-rule="evenodd" fill="#2a1f74" clip-rule="evenodd" font-family="Arial" font-size="9.195745px" font-weight="bold">
    <desc>Línea de texto con la palabra "Informáticos".</desc>
    <title>Informáticos</title>INFORMÁTICOS</text>
   <text id="canarias" class="fil6 fnt2" y="37.886799" x="0.091823" fill-rule="evenodd" fill="#2a1f74" clip-rule="evenodd" font-family="Arial" font-size="9.195745px" font-weight="bold">
    <desc>Línea de texto con la palabra "Canarias, S.L."</desc>
    <title>Canarias, S.L.</title>CANARIAS, S.L.</text>
  </a>
 </g>

</svg>
