<svg xmlns:svg="http://www.w3.org/2000/svg" xmlns="http://www.w3.org/2000/svg" width="150" height="50" viewBox="0 0 150 50" id="svg2" version="1.1"><style>.s0{fill:#2a1f74;font-family:Arial;font-size:9.2;font-weight:bold;image-rendering:optimizeQuality;shape-rendering:geometricPrecision;text-rendering:geometricPrecision;}</style><defs id="defs4"/><metadata id="metadata7"/><style>
      svg * {
        transition: all .1s ease-out;
      }
      
      @media all and (max-width: 800px) {
        #outer-circle {
          fill: #1A1A1A;
        }
        #inner-circle,
        #underground-bg {
          stroke-width: 11;
          stroke: #1A1A1A;
        }
        #red-circle {
          stroke-width: 111;
          fill="#CE0202"
        }
        #underground-text {
          stroke-width: 0;
        }
      }
      
      @media all and (max-width: 640px) {
        #outer-circle {
          fill: #000000;
        }
        #inner-circle,
        #underground-bg {
          stroke: #000000;
          stroke-width: 5;
        }
        #red-circle {
          stroke-width: 115;
          fill="#CE0202"
        }
        #underground-text {
          opacity: 0;
        }
      }
      
      @media all and (max-width: 480px) {
        #outer-circle,
        #inner-circle {
          opacity: 0;
        }
        #underground-bg {
          stroke: #001384;
          stroke-width: 5;
        }
        #underground-text {
          opacity: 0;
        }
      }

    </style><path id="c" class="fil3" d="M81.36 17.06 81.36 17.06 81.36 17.06 81.36 17.05 81.36 17.06 81.36 17.06 81.36 17.06 81.36 17.06 77.03 17.06C77.03 10.28 82.46 4.79 89.15 4.79 95.85 4.79 101.28 10.28 101.28 17.06L96.95 17.06 96.95 17.06C96.95 12.7 93.46 9.17 89.15 9.17 84.85 9.17 81.36 12.7 81.36 17.05L81.36 17.05 81.36 17.05 81.36 17.05 81.36 17.05 81.36 17.05 81.36 17.05 81.36 17.05 81.36 17.05 81.36 17.05 81.36 17.05 81.36 32.84 81.36 32.94C81.36 37.3 84.85 40.83 89.15 40.83 93.46 40.83 96.95 37.3 96.95 32.94L96.95 32.94 101.28 32.94C101.28 39.72 95.85 45.21 89.15 45.21 82.46 45.21 77.03 39.62 77.03 32.84L77.03 17.06 81.36 17.06Z" style="fill:#70a6a7;image-rendering:optimizeQuality;shape-rendering:geometricPrecision;text-rendering:geometricPrecision"><desc id="desc5541">La Aspirina</desc><title id="title5539">C</title></path><path id="picsl" class="fil1" d="M83.21 31.87 83.21 18.12 88.25 18.12C90.17 18.12 91.41 18.19 91.99 18.33 92.89 18.53 93.64 18.98 94.24 19.67 94.84 20.36 95.14 21.26 95.14 22.35 95.14 23.19 94.97 23.9 94.62 24.48 94.27 25.05 93.83 25.51 93.3 25.84 92.76 26.16 92.22 26.38 91.67 26.49 90.92 26.62 89.83 26.68 88.4 26.68L86.35 26.68 86.35 31.87 83.21 31.87ZM86.35 20.45 86.35 24.35 88.07 24.35C89.31 24.35 90.14 24.28 90.56 24.13 90.98 23.99 91.3 23.76 91.54 23.46 91.78 23.15 91.9 22.79 91.9 22.39 91.9 21.89 91.73 21.47 91.4 21.15 91.07 20.82 90.64 20.62 90.14 20.54 89.76 20.48 89 20.45 87.87 20.45L86.35 20.45ZM96.95 18.12 101.28 18.12 101.28 20.72 96.95 20.72 96.95 18.12ZM96.95 21.91 101.28 21.91 101.28 31.87 96.95 31.87 96.95 21.91ZM113.51 26.82 116.55 27.67C116.09 29.17 115.31 30.28 114.22 31.01 113.14 31.74 111.75 32.11 110.08 32.11 108.01 32.11 106.31 31.48 104.98 30.24 103.65 28.99 102.98 27.28 102.98 25.12 102.98 22.83 103.65 21.05 104.99 19.78 106.33 18.52 108.09 17.88 110.27 17.88 112.18 17.88 113.73 18.38 114.92 19.38 115.63 19.96 116.16 20.81 116.52 21.91L113.4 22.57C113.22 21.85 112.83 21.29 112.24 20.88 111.66 20.46 110.95 20.26 110.11 20.26 108.96 20.26 108.02 20.62 107.3 21.36 106.58 22.09 106.22 23.27 106.22 24.91 106.22 26.65 106.58 27.89 107.29 28.62 107.99 29.36 108.92 29.73 110.05 29.73 110.89 29.73 111.61 29.5 112.21 29.03 112.81 28.56 113.24 27.82 113.51 26.82ZM118.02 26.09 118.02 23.45 123.89 23.45 123.89 26.09 118.02 26.09ZM124.18 27.4 127.24 27.13C127.43 28.04 127.8 28.71 128.37 29.13 128.93 29.56 129.69 29.77 130.64 29.77 131.66 29.77 132.42 29.58 132.93 29.2 133.45 28.82 133.71 28.38 133.71 27.88 133.71 27.55 133.6 27.27 133.38 27.05 133.17 26.82 132.79 26.62 132.25 26.45 131.88 26.34 131.04 26.14 129.73 25.85 128.04 25.48 126.86 25.03 126.18 24.49 125.22 23.73 124.74 22.81 124.74 21.72 124.74 21.02 124.97 20.37 125.42 19.75 125.87 19.15 126.52 18.68 127.36 18.36 128.21 18.04 129.23 17.88 130.43 17.88 132.39 17.88 133.86 18.26 134.85 19.02 135.84 19.78 136.36 20.79 136.41 22.05L133.26 22.17C133.13 21.46 132.84 20.96 132.39 20.65 131.95 20.34 131.29 20.18 130.4 20.18 129.49 20.18 128.77 20.35 128.25 20.68 127.92 20.89 127.75 21.18 127.75 21.53 127.75 21.86 127.91 22.14 128.22 22.37 128.62 22.66 129.58 22.97 131.11 23.29 132.64 23.61 133.78 23.94 134.51 24.28 135.24 24.62 135.81 25.08 136.23 25.68 136.65 26.27 136.85 27 136.85 27.87 136.85 28.65 136.61 29.39 136.11 30.08 135.61 30.77 134.91 31.28 134 31.61 133.1 31.95 131.96 32.12 130.61 32.12 128.64 32.12 127.13 31.72 126.07 30.91 125.02 30.11 124.38 28.94 124.18 27.4ZM138.93 31.87 138.93 18.23 142.08 18.23 142.08 29.55 149.9 29.55 149.9 31.87 138.93 31.87Z" style="fill:#2a1f74;image-rendering:optimizeQuality;shape-rendering:geometricPrecision;text-rendering:geometricPrecision"><desc id="desc4230">El texto "PIC-SL"</desc><title id="title5535">PIC-SL</title></path><text id="proyectos" class="fil6 fnt2" y="17.34" x="12.89" class="s0">
      PROYECTOS<desc id="desc4220">Línea de texto con la palabra "proyectos"</desc><title id="title4218">Proyectos</title></text><text id="informaticos" class="fil6 fnt2" y="27.61" x="-0.53" class="s0">
      INFORMÁTICOS<desc id="desc4224">Línea de texto con la palabra "Informáticos".</desc><title id="title4222">Informáticos</title></text><text id="canarias" class="fil6 fnt2" y="37.89" x="0.09" class="s0">
      CANARIAS, S.L.<desc id="desc4228">Línea de texto con la palabra "Canarias, S.L."</desc><title id="title4226">Canarias, S.L.</title></text></svg>