<?xml version="1.0" standalone="no"?>
<!DOCTYPE svg PUBLIC "-//W3C//DTD SVG 20010904//EN"
 "http://www.w3.org/TR/2001/REC-SVG-20010904/DTD/svg10.dtd">
<svg version="1.0" xmlns="http://www.w3.org/2000/svg"
 width="295.000000pt" height="295.000000pt" viewBox="0 0 295.000000 295.000000"
 preserveAspectRatio="xMidYMid meet">
<metadata>
Created by potrace 1.11, written by Peter Selinger 2001-2013
</metadata>
<g transform="translate(0.000000,295.000000) scale(0.100000,-0.100000)"
fill="#000000" stroke="none">
<path d="M1337 2940 c-199 -36 -363 -125 -503 -273 -120 -125 -187 -258 -225
-441 -19 -94 -20 -129 -17 -785 4 -672 4 -688 26 -766 115 -416 484 -692 897
-672 447 22 803 369 841 820 l7 78 -164 -3 -164 -3 -7 -65 c-18 -183 -138
-354 -310 -441 -302 -153 -665 6 -774 338 l-29 88 0 665 0 665 27 78 c113 333
474 490 776 338 172 -87 292 -258 310 -441 l7 -65 164 -3 164 -3 -7 78 c-17
207 -100 394 -240 540 -171 181 -368 271 -611 278 -66 2 -142 0 -168 -5z"/>
<path d="M1080 1475 l0 -525 115 0 115 0 0 195 0 195 88 0 c48 0 139 5 204 10
142 11 205 36 272 111 104 115 103 313 -1 429 -83 93 -166 109 -575 109 l-218
1 0 -525z m556 309 c68 -50 88 -127 47 -182 -42 -56 -75 -66 -230 -71 l-143
-3 0 142 0 142 149 -4 c132 -3 153 -5 177 -24z"/>
<path d="M2040 1895 l0 -105 160 0 160 0 0 105 0 105 -160 0 -160 0 0 -105z"/>
<path d="M2040 1330 l0 -380 160 0 160 0 0 380 0 380 -160 0 -160 0 0 -380z"/>
</g>
</svg>
