<?xml version="1.0" encoding="UTF-8" standalone="no"?>
<svg xmlns:dc="http://purl.org/dc/elements/1.1/" xmlns:cc="http://creativecommons.org/ns#" xmlns:rdf="http://www.w3.org/1999/02/22-rdf-syntax-ns#" xmlns:svg="http://www.w3.org/2000/svg" xmlns="http://www.w3.org/2000/svg" xmlns:xlink="http://www.w3.org/1999/xlink" id="svg28072" style="overflow:hidden;text-rendering:optimizeLegibility" clip-path="url(#MapClipRectangle)" height="839" width="1920" y="0" x="0" xml:space="preserve" version="1.1"><metadata id="metadata28602"><rdf:RDF><cc:Work rdf:about=""><dc:format>image/svg+xml</dc:format><dc:type rdf:resource="http://purl.org/dc/dcmitype/StillImage" /><dc:title>Map Generated Using Maperitive (http://maperitive.net)</dc:title></cc:Work></rdf:RDF></metadata><title id="title28074">Map Generated Using Maperitive (http://maperitive.net)</title><desc id="desc28076">Map Generator: Maperitive v2.3.35 by Igor Brejc
Time: 08/04/2016 10:20:19
</desc><defs id="defs28078"><marker style="overflow:visible" id="marker69761" refX="0.0" refY="0.0" orient="auto"><path transform="scale(-0.8)" style="fill-rule:evenodd;stroke:black;stroke-width:1pt;stroke-opacity:1;fill:black;fill-opacity:1" d="M 5.77,0.0 L -2.88,5.0 L -2.88,-5.0 L 5.77,0.0 z " id="path69763" /></marker><marker style="overflow:visible" id="TriangleOutL" refX="0.0" refY="0.0" orient="auto"><path transform="scale(0.8)" style="fill-rule:evenodd;stroke:black;stroke-width:1pt;stroke-opacity:1;fill:black;fill-opacity:1" d="M 5.77,0.0 L -2.88,5.0 L -2.88,-5.0 L 5.77,0.0 z " id="path29641" /></marker><marker style="overflow:visible" id="TriangleInL" refX="0.0" refY="0.0" orient="auto"><path transform="scale(-0.8)" style="fill-rule:evenodd;stroke:black;stroke-width:1pt;stroke-opacity:1;fill:black;fill-opacity:1" d="M 5.77,0.0 L -2.88,5.0 L -2.88,-5.0 L 5.77,0.0 z " id="path29632" /></marker><marker style="overflow:visible" id="Arrow1Lstart" refX="0.0" refY="0.0" orient="auto"><path transform="scale(0.8) translate(12.5,0)" style="fill-rule:evenodd;stroke:black;stroke-width:1pt;stroke-opacity:1;fill:black;fill-opacity:1" d="M 0.0,0.0 L 5.0,-5.0 L -12.5,0.0 L 5.0,5.0 L 0.0,0.0 z " id="path29499" /></marker><marker orient="auto" refY="0.0" refX="0.0" id="marker69487" style="overflow:visible"><path id="path69489" d="M 0.0,0.0 L 5.0,-5.0 L -12.5,0.0 L 5.0,5.0 L 0.0,0.0 z " style="fill-rule:evenodd;stroke:black;stroke-width:1pt;stroke-opacity:1;fill:black;fill-opacity:1" transform="scale(0.8) rotate(180) translate(12.5,0)" /></marker><marker orient="auto" refY="0.0" refX="0.0" id="marker69441" style="overflow:visible"><path id="path69443" d="M 0.0,0.0 L 5.0,-5.0 L -12.5,0.0 L 5.0,5.0 L 0.0,0.0 z " style="fill-rule:evenodd;stroke:black;stroke-width:1pt;stroke-opacity:1;fill:black;fill-opacity:1" transform="scale(0.8) rotate(180) translate(12.5,0)" /></marker><marker orient="auto" refY="0.0" refX="0.0" id="marker69290" style="overflow:visible"><path id="path69292" d="M 0.0,0.0 L 5.0,-5.0 L -12.5,0.0 L 5.0,5.0 L 0.0,0.0 z " style="fill-rule:evenodd;stroke:none;stroke-width:1pt;stroke-opacity:1;fill:black;fill-opacity:1" transform="scale(0.8) rotate(180) translate(12.5,0)" /></marker><marker style="overflow:visible" id="Arrow1Lend" refX="0.0" refY="0.0" orient="auto"><path transform="scale(0.8) rotate(180) translate(12.5,0)" style="fill-rule:evenodd;stroke:black;stroke-width:1pt;stroke-opacity:1;fill:black;fill-opacity:1" d="M 0.0,0.0 L 5.0,-5.0 L -12.5,0.0 L 5.0,5.0 L 0.0,0.0 z " id="path29502" /></marker><clipPath id="MapClipRectangle" clipPathUnits="userSpaceOnUse"><rect id="rect28081" height="839" width="1920" y="0" x="0" /></clipPath><image xlink:href="file:///home/desarrollo/opt/Maperitive/output/27429.png" height="192" width="192" id="symbol_tile_1" /><image xlink:href="file:///home/desarrollo/opt/Maperitive/output/27429.1.png" height="192" width="193" id="symbol_tile_2" /><image xlink:href="file:///home/desarrollo/opt/Maperitive/output/27429.2.png" height="192" width="192" id="symbol_tile_3" /><image xlink:href="file:///home/desarrollo/opt/Maperitive/output/27429.3.png" height="192" width="192" id="symbol_tile_4" /><image xlink:href="file:///home/desarrollo/opt/Maperitive/output/27429.4.png" height="192" width="192" id="symbol_tile_5" /><image xlink:href="file:///home/desarrollo/opt/Maperitive/output/27429.5.png" height="192" width="193" id="symbol_tile_6" /><image xlink:href="file:///home/desarrollo/opt/Maperitive/output/27429.6.png" height="192" width="192" id="symbol_tile_7" /><image xlink:href="file:///home/desarrollo/opt/Maperitive/output/27429.7.png" height="192" width="192" id="symbol_tile_8" /><image xlink:href="file:///home/desarrollo/opt/Maperitive/output/27429.8.png" height="192" width="192" id="symbol_tile_9" /><image xlink:href="file:///home/desarrollo/opt/Maperitive/output/27429.9.png" height="192" width="192" id="symbol_tile_10" /><image xlink:href="file:///home/desarrollo/opt/Maperitive/output/27429.10.png" height="192" width="193" id="symbol_tile_11" /><image xlink:href="file:///home/desarrollo/opt/Maperitive/output/27430.png" height="192" width="192" id="symbol_tile_12" /><image xlink:href="file:///home/desarrollo/opt/Maperitive/output/27430.1.png" height="192" width="193" id="symbol_tile_13" /><image xlink:href="file:///home/desarrollo/opt/Maperitive/output/27430.2.png" height="192" width="192" id="symbol_tile_14" /><image xlink:href="file:///home/desarrollo/opt/Maperitive/output/27430.3.png" height="192" width="192" id="symbol_tile_15" /><image xlink:href="file:///home/desarrollo/opt/Maperitive/output/27430.4.png" height="192" width="192" id="symbol_tile_16" /><image xlink:href="file:///home/desarrollo/opt/Maperitive/output/27430.5.png" height="192" width="193" id="symbol_tile_17" /><image xlink:href="file:///home/desarrollo/opt/Maperitive/output/27430.6.png" height="192" width="192" id="symbol_tile_18" /><image xlink:href="file:///home/desarrollo/opt/Maperitive/output/27430.7.png" height="192" width="192" id="symbol_tile_19" /><image xlink:href="file:///home/desarrollo/opt/Maperitive/output/27430.8.png" height="192" width="192" id="symbol_tile_20" /><image xlink:href="file:///home/desarrollo/opt/Maperitive/output/27430.9.png" height="192" width="192" id="symbol_tile_21" /><image xlink:href="file:///home/desarrollo/opt/Maperitive/output/27430.10.png" height="192" width="193" id="symbol_tile_22" /><image xlink:href="file:///home/desarrollo/opt/Maperitive/output/27431.png" height="192" width="192" id="symbol_tile_23" /><image xlink:href="file:///home/desarrollo/opt/Maperitive/output/27431.1.png" height="192" width="193" id="symbol_tile_24" /><image xlink:href="file:///home/desarrollo/opt/Maperitive/output/27431.2.png" height="192" width="192" id="symbol_tile_25" /><image xlink:href="file:///home/desarrollo/opt/Maperitive/output/27431.3.png" height="192" width="192" id="symbol_tile_26" /><image xlink:href="file:///home/desarrollo/opt/Maperitive/output/27431.4.png" height="192" width="192" id="symbol_tile_27" /><image xlink:href="file:///home/desarrollo/opt/Maperitive/output/27431.5.png" height="192" width="193" id="symbol_tile_28" /><image xlink:href="file:///home/desarrollo/opt/Maperitive/output/27431.6.png" height="192" width="192" id="symbol_tile_29" /><image xlink:href="file:///home/desarrollo/opt/Maperitive/output/27431.7.png" height="192" width="192" id="symbol_tile_30" /><image xlink:href="file:///home/desarrollo/opt/Maperitive/output/27431.8.png" height="192" width="192" id="symbol_tile_31" /><image xlink:href="file:///home/desarrollo/opt/Maperitive/output/27431.9.png" height="192" width="192" id="symbol_tile_32" /><image xlink:href="file:///home/desarrollo/opt/Maperitive/output/27431.10.png" height="192" width="193" id="symbol_tile_33" /><image xlink:href="file:///home/desarrollo/opt/Maperitive/output/27432.png" height="193" width="192" id="symbol_tile_34" /><image xlink:href="file:///home/desarrollo/opt/Maperitive/output/27432.1.png" height="193" width="193" id="symbol_tile_35" /><image xlink:href="file:///home/desarrollo/opt/Maperitive/output/27432.2.png" height="193" width="192" id="symbol_tile_36" /><image xlink:href="file:///home/desarrollo/opt/Maperitive/output/27432.3.png" height="193" width="192" id="symbol_tile_37" /><image xlink:href="file:///home/desarrollo/opt/Maperitive/output/27432.4.png" height="193" width="192" id="symbol_tile_38" /><image xlink:href="file:///home/desarrollo/opt/Maperitive/output/27432.5.png" height="193" width="193" id="symbol_tile_39" /><image xlink:href="file:///home/desarrollo/opt/Maperitive/output/27432.6.png" height="193" width="192" id="symbol_tile_40" /><image xlink:href="file:///home/desarrollo/opt/Maperitive/output/27432.7.png" height="193" width="192" id="symbol_tile_41" /><image xlink:href="file:///home/desarrollo/opt/Maperitive/output/27432.8.png" height="193" width="192" id="symbol_tile_42" /><image xlink:href="file:///home/desarrollo/opt/Maperitive/output/27432.9.png" height="193" width="192" id="symbol_tile_43" /><image xlink:href="file:///home/desarrollo/opt/Maperitive/output/27432.10.png" height="193" width="193" id="symbol_tile_44" /><image xlink:href="file:///home/desarrollo/opt/Maperitive/output/27433.png" height="192" width="192" id="symbol_tile_45" /><image xlink:href="file:///home/desarrollo/opt/Maperitive/output/27433.1.png" height="192" width="193" id="symbol_tile_46" /><image xlink:href="file:///home/desarrollo/opt/Maperitive/output/27433.2.png" height="192" width="192" id="symbol_tile_47" /><image xlink:href="file:///home/desarrollo/opt/Maperitive/output/27433.3.png" height="192" width="192" id="symbol_tile_48" /><image xlink:href="file:///home/desarrollo/opt/Maperitive/output/27433.4.png" height="192" width="192" id="symbol_tile_49" /><image xlink:href="file:///home/desarrollo/opt/Maperitive/output/27433.5.png" height="192" width="193" id="symbol_tile_50" /><image xlink:href="file:///home/desarrollo/opt/Maperitive/output/27433.6.png" height="192" width="192" id="symbol_tile_51" /><image xlink:href="file:///home/desarrollo/opt/Maperitive/output/27433.7.png" height="192" width="192" id="symbol_tile_52" /><image xlink:href="file:///home/desarrollo/opt/Maperitive/output/27433.8.png" height="192" width="192" id="symbol_tile_53" /><image xlink:href="file:///home/desarrollo/opt/Maperitive/output/27433.9.png" height="192" width="192" id="symbol_tile_54" /><image xlink:href="file:///home/desarrollo/opt/Maperitive/output/27433.10.png" height="192" width="193" id="symbol_tile_55" /><symbol id="symbol_text_56"><text id="text28139" transform="translate(9.5,889.26) scale(0.85,1)">28°6'</text>
<text id="text28141" transform="translate(9.5,889.26) scale(0.85,1)">28°6'</text>
</symbol><symbol id="symbol_text_57"><text id="text28144" transform="translate(9.5,723.97) scale(0.85,1)">28°6'15&quot;</text>
<text id="text28146" transform="translate(9.5,723.97) scale(0.85,1)">28°6'15&quot;</text>
</symbol><symbol id="symbol_text_58"><text id="text28149" transform="translate(9.5,558.68) scale(0.85,1)">28°6'30&quot;</text>
<text id="text28151" transform="translate(9.5,558.68) scale(0.85,1)">28°6'30&quot;</text>
</symbol><symbol id="symbol_text_59"><text id="text28154" transform="translate(9.5,393.38) scale(0.85,1)">28°6'45&quot;</text>
<text id="text28156" transform="translate(9.5,393.38) scale(0.85,1)">28°6'45&quot;</text>
</symbol><symbol id="symbol_text_60"><text id="text28159" transform="translate(9.5,228.07) scale(0.85,1)">28°7'</text>
<text id="text28161" transform="translate(9.5,228.07) scale(0.85,1)">28°7'</text>
</symbol><symbol id="symbol_text_61"><text id="text28164" transform="translate(9.5,62.75) scale(0.85,1)">28°7'15&quot;</text>
<text id="text28166" transform="translate(9.5,62.75) scale(0.85,1)">28°7'15&quot;</text>
</symbol><symbol id="symbol_text_62"><text id="text28169" transform="translate(76.58,21.5) scale(0.85,1)">-15°28'30&quot;</text>
<text id="text28171" transform="translate(76.58,21.5) scale(0.85,1)">-15°28'30&quot;</text>
</symbol><symbol id="symbol_text_63"><text id="text28174" transform="translate(222.38,21.5) scale(0.85,1)">-15°28'15&quot;</text>
<text id="text28176" transform="translate(222.38,21.5) scale(0.85,1)">-15°28'15&quot;</text>
</symbol><symbol id="symbol_text_64"><text id="text28179" transform="translate(377.97,21.5) scale(0.85,1)">-15°28'</text>
<text id="text28181" transform="translate(377.97,21.5) scale(0.85,1)">-15°28'</text>
</symbol><symbol id="symbol_text_65"><text id="text28184" transform="translate(513.98,21.5) scale(0.85,1)">-15°27'45&quot;</text>
<text id="text28186" transform="translate(513.98,21.5) scale(0.85,1)">-15°27'45&quot;</text>
</symbol><symbol id="symbol_text_66"><text id="text28189" transform="translate(659.79,21.5) scale(0.85,1)">-15°27'30&quot;</text>
<text id="text28191" transform="translate(659.79,21.5) scale(0.85,1)">-15°27'30&quot;</text>
</symbol><symbol id="symbol_text_67"><text id="text28194" transform="translate(805.59,21.5) scale(0.85,1)">-15°27'15&quot;</text>
<text id="text28196" transform="translate(805.59,21.5) scale(0.85,1)">-15°27'15&quot;</text>
</symbol><symbol id="symbol_text_68"><text id="text28199" transform="translate(961.18,21.5) scale(0.85,1)">-15°27'</text>
<text id="text28201" transform="translate(961.18,21.5) scale(0.85,1)">-15°27'</text>
</symbol><symbol id="symbol_text_69"><text id="text28204" transform="translate(1097.2,21.5) scale(0.85,1)">-15°26'45&quot;</text>
<text id="text28206" transform="translate(1097.2,21.5) scale(0.85,1)">-15°26'45&quot;</text>
</symbol><symbol id="symbol_text_70"><text id="text28209" transform="translate(1243,21.5) scale(0.85,1)">-15°26'30&quot;</text>
<text id="text28211" transform="translate(1243,21.5) scale(0.85,1)">-15°26'30&quot;</text>
</symbol><symbol id="symbol_text_71"><text id="text28214" transform="translate(1388.8,21.5) scale(0.85,1)">-15°26'15&quot;</text>
<text id="text28216" transform="translate(1388.8,21.5) scale(0.85,1)">-15°26'15&quot;</text>
</symbol><symbol id="symbol_text_72"><text id="text28219" transform="translate(1544.4,21.5) scale(0.85,1)">-15°26'</text>
<text id="text28221" transform="translate(1544.4,21.5) scale(0.85,1)">-15°26'</text>
</symbol><symbol id="symbol_text_73"><text id="text28224" transform="translate(1680.41,21.5) scale(0.85,1)">-15°25'45&quot;</text>
<text id="text28226" transform="translate(1680.41,21.5) scale(0.85,1)">-15°25'45&quot;</text>
</symbol><symbol id="symbol_text_74"><text id="text28229" transform="translate(1826.21,21.5) scale(0.85,1)">-15°25'30&quot;</text>
<text id="text28231" transform="translate(1826.21,21.5) scale(0.85,1)">-15°25'30&quot;</text>
</symbol><symbol id="symbol_text_75"><text id="text28234" transform="translate(66.38,833.84) scale(0.85,1)">1 : 11 035</text>
<text id="text28236" transform="translate(66.38,833.84) scale(0.85,1)">1 : 11 035</text>
</symbol><symbol id="symbol_text_76"><text id="text28239" transform="translate(77.4,808.84) scale(0.85,1)">500 m</text>
<text id="text28241" transform="translate(77.4,808.84) scale(0.85,1)">500 m</text>
</symbol><symbol id="symbol_text_77"><text id="text28244" transform="translate(1589.19,834.98) scale(0.8,1)">© OpenStreetMap contributors. Tiles: CC-BY-SA 2.0</text>
<text id="text28246" transform="translate(1589.19,834.98) scale(0.8,1)">© OpenStreetMap contributors. Tiles: CC-BY-SA 2.0</text>
</symbol><filter id="filter29473" style="color-interpolation-filters:sRGB"><feFlood id="feFlood29475" result="flood" flood-color="rgb(0,0,0)" flood-opacity="0.494118" /><feComposite id="feComposite29477" result="composite1" operator="in" in2="SourceGraphic" in="flood" /><feGaussianBlur id="feGaussianBlur29479" result="blur" stdDeviation="0.5" in="composite1" /><feOffset id="feOffset29481" result="offset" dy="2" dx="2" /><feComposite id="feComposite29483" result="composite2" operator="over" in2="offset" in="SourceGraphic" /></filter><filter style="color-interpolation-filters:sRGB" id="filter11569"><feFlood flood-opacity="0.498039" flood-color="rgb(0,0,0)" result="flood" id="feFlood11571" /><feComposite in="flood" in2="SourceGraphic" operator="in" result="composite1" id="feComposite11573" /><feGaussianBlur in="composite1" stdDeviation="1.6" result="blur" id="feGaussianBlur11575" /><feOffset dx="1.5" dy="1.5" result="offset" id="feOffset11577" /><feComposite in="SourceGraphic" in2="offset" operator="over" result="composite2" id="feComposite11579" /></filter><marker orient="auto" refY="0" refX="0" id="Arrow2Mstart" style="overflow:visible"><path id="path6041" style="fill:black;fill-opacity:1;fill-rule:evenodd;stroke:black;stroke-width:0.625;stroke-linejoin:round;stroke-opacity:1" d="M 8.7185878,4.0337352 -2.2072895,0.01601326 8.7185884,-4.0017078 C 6.97309,-1.6296469 6.9831476,1.6157441 8.7185878,4.0337352 Z" transform="scale(0.6,0.6)" /></marker><filter id="filter68309" style="color-interpolation-filters:sRGB"><feFlood id="feFlood68311" result="flood" flood-color="rgb(0,0,0)" flood-opacity="0.494118" /><feComposite id="feComposite68313" result="composite1" operator="in" in2="SourceGraphic" in="flood" /><feGaussianBlur id="feGaussianBlur68315" result="blur" stdDeviation="0.5" in="composite1" /><feOffset id="feOffset68317" result="offset" dy="2" dx="2" /><feComposite id="feComposite68319" result="composite2" operator="over" in2="offset" in="SourceGraphic" /></filter><filter id="filter69350" style="color-interpolation-filters:sRGB"><feFlood id="feFlood69352" result="flood" flood-color="rgb(0,0,0)" flood-opacity="0.494118" /><feComposite id="feComposite69354" result="composite1" operator="in" in2="SourceGraphic" in="flood" /><feGaussianBlur id="feGaussianBlur69356" result="blur" stdDeviation="0.5" in="composite1" /><feOffset id="feOffset69358" result="offset" dy="2" dx="2" /><feComposite id="feComposite69360" result="composite2" operator="over" in2="offset" in="SourceGraphic" /></filter><filter id="filter69372" style="color-interpolation-filters:sRGB"><feFlood id="feFlood69374" result="flood" flood-color="rgb(0,0,0)" flood-opacity="0.494118" /><feComposite id="feComposite69376" result="composite1" operator="in" in2="SourceGraphic" in="flood" /><feGaussianBlur id="feGaussianBlur69378" result="blur" stdDeviation="0.5" in="composite1" /><feOffset id="feOffset69380" result="offset" dy="2" dx="2" /><feComposite id="feComposite69382" result="composite2" operator="over" in2="offset" in="SourceGraphic" /></filter><filter id="filter69384" style="color-interpolation-filters:sRGB"><feFlood id="feFlood69386" result="flood" flood-color="rgb(0,0,0)" flood-opacity="0.494118" /><feComposite id="feComposite69388" result="composite1" operator="in" in2="SourceGraphic" in="flood" /><feGaussianBlur id="feGaussianBlur69390" result="blur" stdDeviation="0.5" in="composite1" /><feOffset id="feOffset69392" result="offset" dy="2" dx="2" /><feComposite id="feComposite69394" result="composite2" operator="over" in2="offset" in="SourceGraphic" /></filter><filter id="filter69396" style="color-interpolation-filters:sRGB"><feFlood id="feFlood69398" result="flood" flood-color="rgb(0,0,0)" flood-opacity="0.494118" /><feComposite id="feComposite69400" result="composite1" operator="in" in2="SourceGraphic" in="flood" /><feGaussianBlur id="feGaussianBlur69402" result="blur" stdDeviation="0.5" in="composite1" /><feOffset id="feOffset69404" result="offset" dy="2" dx="2" /><feComposite id="feComposite69406" result="composite2" operator="over" in2="offset" in="SourceGraphic" /></filter><filter id="filter69414" style="color-interpolation-filters:sRGB"><feFlood id="feFlood69416" result="flood" flood-color="rgb(0,0,0)" flood-opacity="0.494118" /><feComposite id="feComposite69418" result="composite1" operator="in" in2="SourceGraphic" in="flood" /><feGaussianBlur id="feGaussianBlur69420" result="blur" stdDeviation="0.5" in="composite1" /><feOffset id="feOffset69422" result="offset" dy="2" dx="2" /><feComposite id="feComposite69424" result="composite2" operator="over" in2="offset" in="SourceGraphic" /></filter></defs><g style="fill:#F1EEE8;stroke:#000000" id="Map_background"><g id="map_background"><rect style="stroke:none" id="Map_Background_Fill" height="839" width="1920" y="0" x="0" /></g></g><g style="stroke:#000000" id="Bitmap__in_background"><g id="tiles"><use id="use28253" xlink:href="#symbol_tile_1" height="192" width="192" y="-120" x="-59" /><use id="use28255" xlink:href="#symbol_tile_2" height="192" width="193" y="-120" x="133" /><use id="use28257" xlink:href="#symbol_tile_3" height="192" width="192" y="-120" x="326" /><use id="use28259" xlink:href="#symbol_tile_4" height="192" width="192" y="-120" x="518" /><use id="use28261" xlink:href="#symbol_tile_5" height="192" width="192" y="-120" x="710" /><use id="use28263" xlink:href="#symbol_tile_6" height="192" width="193" y="-120" x="902" /><use id="use28265" xlink:href="#symbol_tile_7" height="192" width="192" y="-120" x="1095" /><use id="use28267" xlink:href="#symbol_tile_8" height="192" width="192" y="-120" x="1287" /><use id="use28269" xlink:href="#symbol_tile_9" height="192" width="192" y="-120" x="1479" /><use id="use28271" xlink:href="#symbol_tile_10" height="192" width="192" y="-120" x="1671" /><use id="use28273" xlink:href="#symbol_tile_11" height="192" width="193" y="-120" x="1863" /><use id="use28275" xlink:href="#symbol_tile_12" height="192" width="192" y="72" x="-59" /><use id="use28277" xlink:href="#symbol_tile_13" height="192" width="193" y="72" x="133" /><use id="use28279" xlink:href="#symbol_tile_14" height="192" width="192" y="72" x="326" /><use id="use28281" xlink:href="#symbol_tile_15" height="192" width="192" y="72" x="518" /><use id="use28283" xlink:href="#symbol_tile_16" height="192" width="192" y="72" x="710" /><use id="use28285" xlink:href="#symbol_tile_17" height="192" width="193" y="72" x="902" /><use id="use28287" xlink:href="#symbol_tile_18" height="192" width="192" y="72" x="1095" /><use id="use28289" xlink:href="#symbol_tile_19" height="192" width="192" y="72" x="1287" /><use id="use28291" xlink:href="#symbol_tile_20" height="192" width="192" y="72" x="1479" /><use id="use28293" xlink:href="#symbol_tile_21" height="192" width="192" y="72" x="1671" /><use id="use28295" xlink:href="#symbol_tile_22" height="192" width="193" y="72" x="1863" /><use id="use28297" xlink:href="#symbol_tile_23" height="192" width="192" y="264" x="-59" /><use id="use28299" xlink:href="#symbol_tile_24" height="192" width="193" y="264" x="133" /><use id="use28301" xlink:href="#symbol_tile_25" height="192" width="192" y="264" x="326" /><use id="use28303" xlink:href="#symbol_tile_26" height="192" width="192" y="264" x="518" /><use id="use28305" xlink:href="#symbol_tile_27" height="192" width="192" y="264" x="710" /><use id="use28307" xlink:href="#symbol_tile_28" height="192" width="193" y="264" x="902" /><use id="use28309" xlink:href="#symbol_tile_29" height="192" width="192" y="264" x="1095" /><use id="use28311" xlink:href="#symbol_tile_30" height="192" width="192" y="264" x="1287" /><use id="use28313" xlink:href="#symbol_tile_31" height="192" width="192" y="264" x="1479" /><use id="use28315" xlink:href="#symbol_tile_32" height="192" width="192" y="264" x="1671" /><use id="use28317" xlink:href="#symbol_tile_33" height="192" width="193" y="264" x="1863" /><use id="use28319" xlink:href="#symbol_tile_34" height="193" width="192" y="456" x="-59" /><use id="use28321" xlink:href="#symbol_tile_35" height="193" width="193" y="456" x="133" /><use id="use28323" xlink:href="#symbol_tile_36" height="193" width="192" y="456" x="326" /><use id="use28325" xlink:href="#symbol_tile_37" height="193" width="192" y="456" x="518" /><use id="use28327" xlink:href="#symbol_tile_38" height="193" width="192" y="456" x="710" /><use id="use28329" xlink:href="#symbol_tile_39" height="193" width="193" y="456" x="902" /><use id="use28331" xlink:href="#symbol_tile_40" height="193" width="192" y="456" x="1095" /><use id="use28333" xlink:href="#symbol_tile_41" height="193" width="192" y="456" x="1287" /><use id="use28335" xlink:href="#symbol_tile_42" height="193" width="192" y="456" x="1479" /><use id="use28337" xlink:href="#symbol_tile_43" height="193" width="192" y="456" x="1671" /><use id="use28339" xlink:href="#symbol_tile_44" height="193" width="193" y="456" x="1863" /><use id="use28341" xlink:href="#symbol_tile_45" height="192" width="192" y="649" x="-59" /><use id="use28343" xlink:href="#symbol_tile_46" height="192" width="193" y="649" x="133" /><use id="use28345" xlink:href="#symbol_tile_47" height="192" width="192" y="649" x="326" /><use id="use28347" xlink:href="#symbol_tile_48" height="192" width="192" y="649" x="518" /><use id="use28349" xlink:href="#symbol_tile_49" height="192" width="192" y="649" x="710" /><use id="use28351" xlink:href="#symbol_tile_50" height="192" width="193" y="649" x="902" /><use id="use28353" xlink:href="#symbol_tile_51" height="192" width="192" y="649" x="1095" /><use id="use28355" xlink:href="#symbol_tile_52" height="192" width="192" y="649" x="1287" /><use id="use28357" xlink:href="#symbol_tile_53" height="192" width="192" y="649" x="1479" /><use id="use28359" xlink:href="#symbol_tile_54" height="192" width="192" y="649" x="1671" /><use id="use28361" xlink:href="#symbol_tile_55" height="192" width="193" y="649" x="1863" /></g></g><g id="Map_decoration"><g style="stroke:#B0B0B0;stroke-width:0.5;font-family:Tahoma;font-size:12px;font-weight:bold" id="map_grid__latitude" /><g style="stroke:#B0B0B0;stroke-width:0.5;font-family:Tahoma;font-size:12px;font-weight:bold" id="map_grid__longitude" /><g style="stroke:#000000;font-family:Tahoma;font-size:12px;font-weight:bold" id="map_scale__text" /><g style="fill:#000000;stroke:#000000" id="map_scale__indicator" /><g style="fill:#FFFFFF;stroke:#000000" id="map_scale__indicator1" /><g style="fill:#000000;stroke:#000000" id="map_scale__indicator11" /><g style="fill:#FFFFFF;stroke:#000000" id="map_scale__indicator111" /><g style="fill:#000000;stroke:#000000" id="map_scale__indicator1111" /><g style="stroke:#000000;font-family:Tahoma;font-size:14px;font-weight:bold" id="floating_label"><g style="filter:url(#filter69396)" transform="translate(483,-93)" id="g29487"><rect style="fill:white;fill-opacity:1;stroke:black;stroke-width:0.98302352;stroke-linecap:round;stroke-linejoin:round;stroke-miterlimit:4;stroke-dasharray:none;stroke-dashoffset:0;stroke-opacity:1" id="rect29485" width="183.01698" height="114.01698" x="407.99152" y="105.99151" /><text xml:space="preserve" style="font-style:normal;font-variant:normal;font-weight:normal;font-stretch:normal;font-size:43.114048px;line-height:125%;font-family:Ubuntu;-inkscape-font-specification:'Ubuntu, Normal';text-align:center;letter-spacing:0px;word-spacing:0px;writing-mode:lr-tb;text-anchor:middle;overflow:hidden;fill:#424345;fill-opacity:1;stroke:none;stroke-width:1px;stroke-linecap:butt;stroke-linejoin:miter;stroke-opacity:1;filter:url(#filter29473);text-rendering:optimizeLegibility" x="503.67688" y="151.42786" id="text28632-3" transform="matrix(0.92682837,0,0,0.92682837,29.952111,7.9336998)"><tspan id="tspan28634-3" x="503.67688" y="151.42786">Hospital</tspan><tspan x="503.67688" y="205.32042" id="tspan28636-6">Negrín</tspan></text>
</g><path id="path29493" d="M 1071.09,65.285568 1148.6519,70.867181" style="fill:none;fill-rule:evenodd;stroke:black;stroke-width:2;stroke-linecap:round;stroke-linejoin:round;stroke-miterlimit:4;stroke-dasharray:none;stroke-opacity:1;marker-end:url(#Arrow1Lend)" /><ellipse style="overflow:hidden;fill:black;fill-opacity:0.19634705;stroke:black;stroke-width:0.488089;stroke-linecap:round;stroke-linejoin:round;stroke-miterlimit:4;stroke-dasharray:none;stroke-opacity:1;text-rendering:optimizeLegibility" id="path5422" cx="904.29523" cy="461.15485" rx="7.213078" ry="2.8647685" /><path style="overflow:hidden;fill:#e30613;stroke:black;stroke-width:2.44044495;stroke-miterlimit:4;stroke-dasharray:none;stroke-opacity:1;text-rendering:optimizeLegibility" d="M 930.96822,413.29256 C 931.06349,412.88892 931.14653,412.48128 931.2206,412.07113 931.47195,410.75204 931.61904,409.49954 931.61904,408.34824 931.61904,408.27356 931.61025,408.20201 931.60742,408.12839 931.61133,407.98466 931.61904,407.84193 931.61904,407.6982 931.61904,393.45216 919.41631,381.90338 904.36477,381.90338 889.31272,381.90338 877.11051,393.45216 877.11051,407.6982 877.11051,407.84043 877.1193,407.98015 877.12164,408.12188 877.11871,408.19802 877.11003,408.27112 877.11003,408.34824 877.11003,425.50689 904.36429,459.93987 904.36429,459.93987 904.36429,459.93987 925.79605,432.23804 930.63914,414.54904 930.73227,414.23154 930.81692,413.91054 930.8963,413.58753 930.91748,413.48738 930.94394,413.38971 930.96512,413.29256 Z" id="path11175-6" /><ellipse style="overflow:hidden;fill:white;fill-opacity:1;stroke:black;stroke-width:2.44044495;stroke-linecap:round;stroke-linejoin:round;stroke-miterlimit:4;stroke-dasharray:none;stroke-opacity:1;text-rendering:optimizeLegibility" id="path5420" cx="904.36456" cy="410.41589" rx="10.231317" ry="10.435944" /><g style="filter:url(#filter69372)" id="g69365"><g id="g69362"><rect style="fill:white;fill-opacity:1;stroke:#6e6e6e;stroke-width:2.28826141;stroke-linecap:round;stroke-linejoin:round;stroke-miterlimit:4;stroke-dasharray:none;stroke-opacity:1;text-rendering:optimizeLegibility;filter:url(#filter69350)" id="rect11327" width="288.03851" height="255.96756" x="308.93768" y="86.336838" /></g><g style="fill-rule:evenodd;filter:url(#filter11569);text-rendering:optimizeLegibility" transform="matrix(4.9538019,0,0,4.3676506,322.78539,203.74198)" id="g3842"><path id="_147224088" class="fil0" d="M 4.8873515,-16.542381 4.8873515,-16.542021 4.8873515,-16.541781 4.8873515,-16.518971 4.8873515,-6.006871 4.8873515,-5.939571 4.8873515,-5.939151 4.8872915,-5.939151 C 4.8873515,-4.492211 5.4674825,-3.181861 6.4050115,-2.233411 7.3421785,-1.285257 8.6368615,-0.698581 10.066562,-0.698401 L 10.066562,-0.698461 10.067462,-0.698461 10.067882,-0.698461 10.067882,-0.698401 C 11.497892,-0.698461 12.792993,-1.285316 13.730283,-2.233651 14.66757,-3.181985 15.247583,-4.492101 15.247763,-5.938671 L 15.247703,-5.938671 15.247703,-5.939571 15.247703,-5.939631 15.247703,-5.962441 15.270573,-5.962441 18.161203,-5.962441 18.184073,-5.962441 18.184073,-5.939631 18.184073,-5.939211 18.184013,-5.939211 C 18.183893,-3.672361 17.275123,-1.619601 15.806392,-0.133701 14.337723,1.352079 12.308792,2.271349 10.068363,2.271589 L 10.068363,2.271649 10.067462,2.271649 10.067042,2.271649 10.067042,2.271589 C 7.826182,2.271469 5.796962,1.335203 4.328232,-0.167691 2.859742,-1.670281 1.951272,-3.739491 1.951032,-6.005981 L 1.950972,-6.005981 1.950972,-6.006882 1.951032,-6.006882 1.954992,-16.541682 1.955052,-16.564432 C 1.956912,-17.312184 2.057474,-18.036522 2.244247,-18.724242 2.621755,-20.114142 3.351617,-21.356712 4.330327,-22.347252 5.309039,-23.337791 6.536897,-24.076662 7.910597,-24.459212 8.597292,-24.650428 9.320727,-24.75273 10.067457,-24.75285 L 10.067457,-24.75291 10.067878,-24.75291 10.067878,-24.75285 C 12.308745,-24.752728 14.337965,-23.833273 15.806754,-22.347249 17.275184,-20.861529 18.183774,-18.809129 18.184015,-16.542579 L 18.184075,-16.542579 18.184075,-16.541678 18.184075,-16.518868 18.161205,-16.518868 15.270575,-16.518868 15.247705,-16.518868 15.247705,-16.541678 15.247705,-16.541738 15.247705,-16.542158 15.247765,-16.542158 C 15.247705,-17.989098 14.667574,-19.299508 13.730045,-20.247898 12.792818,-21.195992 11.498074,-21.782668 10.068374,-21.782848 L 10.068374,-21.782788 10.067474,-21.782788 C 9.9246472,-21.782788 9.7829012,-21.776888 9.6428362,-21.765438 9.2564422,-21.733738 8.8819362,-21.658994 8.5244762,-21.546365 L 8.5244762,-21.546305 C 8.1665392,-21.433437 7.8252932,-21.282325 7.5057162,-21.097954 5.9430862,-20.196509 4.8888562,-18.495684 4.8872962,-16.546244 L 4.8873562,-16.546244 4.8873562,-16.546184 4.8873562,-16.546064 4.8873562,-16.545944 4.8873562,-16.545824 4.8873562,-16.542724 4.8873562,-16.542364 Z" style="fill:#70a6a7;fill-rule:nonzero" /><path id="_147223704" class="fil1" d="M 6.0973215,-6.654851 6.0973215,-15.832901 9.4656615,-15.832901 C 10.741792,-15.832901 11.574861,-15.785951 11.962272,-15.694097 12.558011,-15.557274 13.059131,-15.258053 13.461142,-14.796554 13.863145,-14.334995 14.064147,-13.738774 14.064147,-13.010054 14.064147,-12.445953 13.947976,-11.971484 13.715516,-11.589054 13.483055,-11.204341 13.190078,-10.903079 12.831541,-10.682926 12.475646,-10.464994 12.112546,-10.319646 11.744341,-10.249224 11.243158,-10.161574 10.516661,-10.116664 9.5649605,-10.116664 L 8.1966705,-10.116664 8.1966705,-6.654854 6.0973205,-6.654854 Z M 8.1966715,-14.279461 8.1966715,-11.676591 9.3445615,-11.676591 C 10.172822,-11.676591 10.727321,-11.723661 11.005701,-11.819778 11.28427,-11.915958 11.502141,-12.065567 11.662078,-12.270711 11.819433,-12.475795 11.899402,-12.712999 11.899402,-12.984423 11.899402,-13.317865 11.787915,-13.593491 11.56518,-13.811423 11.344787,-14.027194 11.061535,-14.164016 10.72245,-14.217449 10.470598,-14.260199 9.9669535,-14.279469 9.2114005,-14.279469 L 8.1966705,-14.279469 Z M 15.270751,-15.832901 18.159701,-15.832901 18.159701,-14.097791 15.270751,-14.097791 15.270751,-15.832901 Z M 15.270751,-13.302791 18.159701,-13.302791 18.159701,-6.654851 15.270751,-6.654851 15.270751,-13.302791 Z M 26.318052,-10.029071 28.352022,-9.460647 C 28.039592,-8.458397 27.52154,-7.714727 26.795042,-7.227537 26.070944,-6.742504 25.148362,-6.498936 24.032052,-6.498936 22.651702,-6.498936 21.516052,-6.915588 20.627332,-7.746786 19.738554,-8.58027 19.293082,-9.719156 19.293082,-11.161596 19.293082,-12.689516 19.741013,-13.875476 20.634652,-14.721746 21.528112,-15.565857 22.702542,-15.988996 24.160282,-15.988996 25.431612,-15.988996 26.465672,-15.657716 27.259892,-14.993174 27.734539,-14.602037 28.088093,-14.037936 28.325352,-13.302794 L 26.245272,-12.864709 C 26.124239,-13.341337 25.867584,-13.717405 25.475186,-13.993029 25.08543,-14.268716 24.610723,-14.405539 24.053826,-14.405539 23.28368,-14.405539 22.656536,-14.161852 22.177086,-13.672556 21.697636,-13.185301 21.457851,-12.394626 21.457851,-11.300526 21.457851,-10.140266 21.692773,-9.313266 22.16736,-8.821686 22.639606,-8.328127 23.25462,-8.082339 24.01011,-8.082339 24.569587,-8.082339 25.04892,-8.238313 25.450919,-8.552483 25.852923,-8.864432 26.141158,-9.35805 26.318024,-10.029073 Z M 29.331152,-10.514104 29.331152,-12.272864 33.246782,-12.272864 33.246782,-10.514104 29.331152,-10.514104 Z M 33.441122,-9.640155 35.484942,-9.817502 C 35.606035,-9.210655 35.855426,-8.766202 36.233235,-8.481932 36.608462,-8.199881 37.114567,-8.056695 37.753954,-8.056695 38.429543,-8.056695 38.940514,-8.182771 39.281934,-8.437085 39.625882,-8.689238 39.797767,-8.984136 39.797767,-9.32178 39.797767,-9.539712 39.725067,-9.723483 39.579655,-9.875195 39.436889,-10.029068 39.185155,-10.161568 38.824158,-10.272695 38.57963,-10.349605 38.01793,-10.482102 37.143678,-10.674398 36.017578,-10.920187 35.228278,-11.22361 34.775368,-11.582567 34.136101,-12.086932 33.816527,-12.702367 33.816527,-13.428867 33.816527,-13.89691 33.966678,-14.332834 34.26698,-14.741017 34.567102,-15.147043 35.000624,-15.45689 35.56491,-15.670499 36.131473,-15.882067 36.81198,-15.988992 37.61095,-15.988992 38.91872,-15.988992 39.89941,-15.736839 40.560529,-15.232414 41.219127,-14.726068 41.565539,-14.052884 41.599339,-13.208834 L 39.499929,-13.127604 C 39.410239,-13.59985 39.216558,-13.939655 38.921059,-14.144744 38.625681,-14.352049 38.182612,-14.454651 37.591679,-14.454651 36.98141,-14.454651 36.502019,-14.345685 36.158189,-14.123431 35.935394,-13.982406 35.824027,-13.792151 35.824027,-13.554947 35.824027,-13.337015 35.928131,-13.151083 36.136336,-12.99727 36.400256,-12.800651 37.044446,-12.595507 38.066386,-12.383939 39.088206,-12.17027 39.843766,-11.950177 40.332937,-11.72366 40.821992,-11.495042 41.204543,-11.185194 41.483117,-10.789795 41.759163,-10.394456 41.897187,-9.907261 41.897187,-9.328155 41.897187,-8.802477 41.732507,-8.308855 41.400747,-7.851565 41.069046,-7.392167 40.601663,-7.0502 39.996317,-6.827945 39.390851,-6.603589 38.635297,-6.492462 37.732167,-6.492462 36.417187,-6.492462 35.407437,-6.759624 34.702797,-7.295928 33.998211,-7.832292 33.576757,-8.614508 33.441137,-9.640168 Z M 43.282872,-6.654845 43.282872,-15.758155 45.382522,-15.758155 45.382522,-8.201925 50.603222,-8.201925 50.603222,-6.654845 43.282872,-6.654845 Z" style="fill:#2a1f74;fill-rule:nonzero" /></g></g><text xml:space="preserve" style="font-style:normal;font-variant:normal;font-weight:normal;font-stretch:normal;font-size:31.66449356px;line-height:125%;font-family:Sans;-inkscape-font-specification:'Sans, Normal';text-align:center;letter-spacing:0px;word-spacing:0px;writing-mode:lr-tb;text-anchor:middle;fill:black;fill-opacity:1;stroke:none;stroke-width:1px;stroke-linecap:butt;stroke-linejoin:miter;stroke-opacity:1;text-rendering:optimizeLegibility" x="443.77808" y="255.01402" id="text5598" transform="scale(1.0243772,0.97620289)"><tspan id="tspan5602" x="443.77808" y="255.01402">C/ Manzanilla,12</tspan><tspan id="tspan5604" x="443.77808" y="294.59467">Torres Altas</tspan><tspan id="tspan5606" x="443.77808" y="334.17526">Las Palmas</tspan></text>
<path style="font-weight:bold;font-size:12px;font-family:Tahoma;display:inline;overflow:hidden;fill:none;fill-opacity:1;fill-rule:evenodd;stroke:black;stroke-width:5.64791775;stroke-linecap:round;stroke-linejoin:round;stroke-miterlimit:4;stroke-dasharray:none;stroke-opacity:1;marker-start:url(#Arrow2Mstart);text-rendering:optimizeLegibility" d="M 874.88578,429.60962 497.05201,344.90336" id="path5686" /><g style="filter:url(#filter69384)" transform="translate(140,41)" id="g68321"><rect style="fill:white;fill-opacity:1;stroke:black;stroke-width:2;stroke-linecap:round;stroke-linejoin:round;stroke-miterlimit:4;stroke-dasharray:none;stroke-dashoffset:0;stroke-opacity:1" id="rect68307" width="238" height="101" x="464" y="679" /><text xml:space="preserve" style="font-style:normal;font-weight:normal;font-size:40px;line-height:125%;font-family:sans-serif;letter-spacing:0px;word-spacing:0px;fill:black;fill-opacity:1;stroke:none;stroke-width:1px;stroke-linecap:butt;stroke-linejoin:miter;stroke-opacity:1;filter:url(#filter68309)" x="487" y="743" id="text68303"><tspan id="tspan68305" x="487" y="743">7 Palmas</tspan></text>
</g><g transform="translate(132.45283,19.245283)" id="g69426"><rect style="fill:white;fill-opacity:1;stroke:black;stroke-width:2;stroke-linecap:round;stroke-linejoin:round;stroke-miterlimit:4;stroke-dasharray:none;stroke-dashoffset:0;stroke-opacity:1" id="rect69412" width="361.13208" height="91.698112" x="1357.3585" y="356.73584" /><text xml:space="preserve" style="font-style:normal;font-weight:normal;font-size:40px;line-height:125%;font-family:sans-serif;letter-spacing:0px;word-spacing:0px;fill:black;fill-opacity:1;stroke:none;stroke-width:1px;stroke-linecap:butt;stroke-linejoin:miter;stroke-opacity:1;filter:url(#filter69414)" x="1386.7925" y="415.60376" id="text69408"><tspan id="tspan69410" x="1386.7925" y="415.60376">Circunvalación</tspan></text>
</g><path id="path69431" d="M 1471.6981,428.68868 C 1261.1321,428.85535 1261.1321,429.02201 1261.1321,429.18868 1261.1321,429.35535 1261.1321,429.52201 1471.6981,429.68868 Z" style="fill:black;fill-rule:evenodd;stroke:black;stroke-width:2;stroke-linecap:round;stroke-linejoin:round;stroke-opacity:1;stroke-miterlimit:4;stroke-dasharray:none;marker-start:url(#marker69761)" /></g></g><g style="stroke:black;stroke-width:2;fill:none" id="Map_frame" /></svg>